<svg version="1.1" id="Layer_1" xmlns="http://www.w3.org/2000/svg" xmlns:xlink="http://www.w3.org/1999/xlink" x="0px" y="0px"
	 width="100%" viewBox="0 0 1078 379" enable-background="new 0 0 1078 379" xml:space="preserve">
<path fill="#000000" opacity="1.000000" stroke="none" 
	d="
M763.000000,380.000000 
	C508.666656,380.000000 254.833328,380.000000 1.000000,380.000000 
	C1.000000,253.666672 1.000000,127.333336 1.000000,1.000000 
	C360.333344,1.000000 719.666687,1.000000 1079.000000,1.000000 
	C1079.000000,127.333336 1079.000000,253.666672 1079.000000,380.000000 
	C973.833313,380.000000 868.666687,380.000000 763.000000,380.000000 
M360.024841,204.405930 
	C366.733459,193.412888 367.514130,181.032364 365.685944,169.087692 
	C362.147064,145.965668 347.142853,129.301620 330.514404,114.411697 
	C319.962646,104.963127 308.386871,96.569473 296.759186,88.433212 
	C281.693329,77.891129 266.149963,68.027794 250.701874,58.042843 
	C249.500854,57.266552 246.721848,57.138905 245.939728,57.941303 
	C244.856567,59.052578 244.266830,61.526577 244.694458,63.078518 
	C246.719910,70.429138 249.179184,77.659637 251.454041,84.942261 
	C254.981644,96.235283 258.485077,107.535851 261.189850,118.963257 
	C260.115845,118.642807 259.061768,118.166077 257.964752,118.026093 
	C247.132736,116.643982 236.314056,115.113976 225.451584,114.024826 
	C210.287506,112.504364 195.100800,111.166382 179.901260,110.059395 
	C170.844147,109.399757 161.734604,109.486694 152.666718,108.938705 
	C147.484268,108.625519 142.349319,107.415245 137.169907,107.219376 
	C135.188171,107.144432 131.681335,108.494217 131.455856,109.684639 
	C131.085831,111.638123 132.232513,114.633522 133.779846,116.065460 
	C140.631210,122.405823 147.960297,128.226013 154.919266,134.454834 
	C169.764130,147.742126 184.486664,161.166077 198.512405,174.888412 
	C184.087204,180.709351 169.412521,185.988098 155.297134,192.482422 
	C135.715347,201.491776 116.568542,211.444565 97.206467,220.934174 
	C85.241692,226.798294 73.166153,232.440887 61.296822,238.489960 
	C59.726437,239.290283 58.458046,241.845093 58.265335,243.712769 
	C58.163952,244.695328 60.534706,246.318039 62.077400,246.983154 
	C63.825195,247.736710 65.910706,247.671906 67.823616,248.082825 
	C96.121346,254.161819 124.440643,260.143799 152.701492,266.390045 
	C177.594345,271.891937 202.801498,275.269806 228.185089,276.822357 
	C244.332001,277.809937 260.510193,276.908142 276.618225,274.156708 
	C302.555145,269.726471 325.353790,259.843109 342.363312,239.062012 
	C350.106659,229.601715 356.021759,219.052750 359.602234,206.760315 
	C359.619904,206.197906 359.637573,205.635483 360.024841,204.405930 
M659.000000,232.500000 
	C659.000000,246.595596 659.000000,260.691193 659.000000,274.711670 
	C672.312500,274.711670 685.050476,274.711670 698.000000,274.711670 
	C698.000000,263.114777 698.106628,251.803467 697.937805,240.496262 
	C697.884094,236.900818 699.625366,234.634521 702.632385,234.002579 
	C704.562683,233.596924 707.484314,234.253998 708.864990,235.578140 
	C712.874146,239.423096 716.357666,243.821198 719.997803,248.044983 
	C726.942261,256.102905 733.782776,264.252197 740.844604,272.205383 
	C742.032532,273.543304 744.104492,274.852509 745.786621,274.876587 
	C760.364014,275.085175 774.945679,274.996796 790.285828,274.996796 
	C774.901855,256.469696 760.019897,238.578476 745.187256,220.646408 
	C743.235657,218.287048 741.303955,215.853836 739.773132,213.216797 
	C737.311890,208.976990 741.992676,208.002670 743.706360,205.898773 
	C755.043762,191.980667 766.601318,178.242035 778.060547,164.422943 
	C781.825012,159.883224 785.510681,155.278198 789.803833,150.000580 
	C774.874451,150.000580 761.070129,149.835800 747.277039,150.154953 
	C744.840088,150.211334 741.902405,151.748291 740.143311,153.534454 
	C735.321899,158.430176 731.030457,163.845078 726.482971,169.013870 
	C718.893250,177.640640 711.252014,186.222183 703.668701,194.854584 
	C701.942200,196.819946 700.363525,198.915161 698.000000,201.836639 
	C698.000000,181.583389 698.020996,162.768478 697.989685,143.953659 
	C697.977112,136.382828 691.896790,127.177765 685.168823,126.243935 
	C676.616333,125.056854 667.895935,125.079910 659.000000,124.566925 
	C659.000000,160.887878 659.000000,196.193939 659.000000,232.500000 
M400.000000,234.500000 
	C400.000000,247.929398 400.000000,261.358795 400.000000,274.710999 
	C412.980438,274.710999 425.385254,274.710999 438.000061,274.710999 
	C438.000061,263.613037 437.877747,252.800659 438.073395,241.994034 
	C438.133423,238.679932 438.566650,235.471115 442.736481,233.846054 
	C446.835815,232.248474 449.087891,234.921204 450.859039,236.940964 
	C460.867950,248.354462 470.404327,260.181641 480.367004,271.637085 
	C481.879242,273.375885 484.759186,274.806458 487.037964,274.853455 
	C501.168579,275.144684 515.308167,275.000000 530.538269,275.000000 
	C512.936218,253.570343 495.843323,232.760559 478.733521,211.930191 
	C495.938446,191.299454 512.916870,170.940384 530.380005,150.000000 
	C517.320801,150.000000 505.193512,150.157822 493.073181,149.935623 
	C486.697052,149.818726 481.934143,151.261719 477.472168,156.706543 
	C464.891541,172.058365 451.444702,186.700348 438.000000,202.008392 
	C438.000000,181.597244 438.039185,161.780334 437.973297,141.963791 
	C437.956207,136.816528 435.439850,132.940811 431.415649,129.765289 
	C421.794800,122.173347 410.742828,125.965378 400.000000,124.947617 
	C400.000000,161.554169 400.000000,197.527084 400.000000,234.500000 
M870.000000,184.606476 
	C869.980469,190.723160 865.051941,192.725159 860.750305,193.796097 
	C851.533875,196.090607 842.113342,198.003616 832.667725,198.828201 
	C820.841919,199.860565 809.984802,203.200409 799.622559,208.767929 
	C793.187256,212.225555 788.690308,217.174240 786.374634,224.112671 
	C783.734741,232.022537 783.444092,240.182220 785.221191,248.153473 
	C786.695312,254.765533 789.412659,261.288574 795.115356,265.517731 
	C805.389282,273.136871 817.252625,276.677643 829.923035,276.902649 
	C839.160461,277.066681 848.471741,276.853333 857.641174,275.831024 
	C864.720032,275.041809 871.629761,272.735779 879.160278,270.976685 
	C886.914734,278.553009 897.313843,273.673065 907.000000,275.064789 
	C907.000000,243.795044 907.027710,213.314774 906.984619,182.834625 
	C906.970093,172.591476 902.156372,164.761505 893.981384,159.043213 
	C883.707336,151.856583 871.700134,149.951492 859.604065,149.110413 
	C851.315796,148.534088 842.932739,148.615158 834.632324,149.096786 
	C824.106018,149.707565 813.939270,152.119370 804.935730,158.016739 
	C795.622742,164.116852 789.503357,172.322800 787.995667,184.000000 
	C797.691345,184.000000 807.005310,183.870453 816.313354,184.051544 
	C821.399109,184.150513 826.097107,184.141754 829.459839,179.259674 
	C830.375122,177.930862 832.801697,177.601578 834.572510,176.910461 
	C844.375061,173.084702 854.196594,174.911850 863.775024,177.529831 
	C866.237976,178.203003 867.944702,181.643250 870.000000,184.606476 
M540.445435,266.039581 
	C552.354187,273.723907 565.739014,276.646759 579.562378,276.801117 
	C587.776855,276.892853 596.090393,275.430817 604.224670,273.934845 
	C624.853455,270.141022 638.127075,257.520081 644.952271,238.066544 
	C649.855896,224.090012 650.253418,209.761993 647.040100,195.255371 
	C642.531494,174.900803 631.203247,160.404343 611.444946,153.023376 
	C600.869751,149.072891 589.853088,147.993073 578.677368,149.049393 
	C570.771790,149.796616 562.597290,149.974136 555.094666,152.236191 
	C539.446411,156.954147 527.441467,166.818253 521.109436,182.212372 
	C515.198425,196.583099 514.698059,211.687759 516.987366,226.950027 
	C519.392029,242.981522 525.692871,256.710449 540.445435,266.039581 
M960.000000,248.499435 
	C960.000000,234.349503 959.806396,220.195816 960.080750,206.051208 
	C960.220276,198.857971 962.500305,192.116501 968.968140,188.098602 
	C974.628540,184.582321 980.951904,182.673050 987.821594,182.959869 
	C992.758789,183.166016 997.711487,183.000000 1002.790649,183.000000 
	C1002.790649,171.498871 1002.790649,160.436417 1002.790649,148.189148 
	C991.915588,149.159256 981.208679,149.342636 970.818298,151.250137 
	C959.583252,153.312714 948.955811,157.552216 940.087219,165.353226 
	C926.274780,177.503174 921.101013,193.194427 921.020325,210.994522 
	C920.931335,230.637497 921.000000,250.281158 921.000000,269.924530 
	C921.000000,271.528107 921.000000,273.131714 921.000000,275.000000 
	C930.811218,275.000000 940.104553,275.006256 949.397888,274.997925 
	C956.212280,274.991821 959.905090,271.355011 959.988220,264.481079 
	C960.048645,259.487732 960.000000,254.493073 960.000000,248.499435 
M923.966309,307.375275 
	C922.560120,309.853333 921.153931,312.331421 919.392395,315.435791 
	C918.767639,309.009644 918.246704,303.651855 917.716919,298.202362 
	C915.811157,298.202362 914.056458,298.202362 911.968445,298.202362 
	C913.064758,306.567322 914.129395,314.690125 915.185242,322.746124 
	C923.094299,323.262695 923.423828,323.033569 925.987793,316.045349 
	C926.702576,314.097321 927.548645,312.197479 928.860596,308.989014 
	C929.202576,320.959473 929.557251,322.069336 932.863342,322.936676 
	C938.626892,324.448730 942.587219,322.675354 946.187256,316.191833 
	C946.495850,323.508514 951.105469,323.534546 955.708679,322.891388 
	C957.531555,322.636658 959.184692,321.167206 961.041504,320.183899 
	C962.719666,322.560303 969.734131,324.653198 973.968018,322.827667 
	C975.168518,322.310028 975.633362,320.086151 976.995667,317.638519 
	C971.908447,318.428772 967.900208,321.058685 964.667969,315.330688 
	C969.472656,315.330688 973.627563,315.330688 979.419983,315.330688 
	C977.790405,311.038391 977.492126,306.632507 975.283691,305.225952 
	C971.283997,302.678650 966.265930,302.857056 962.542603,306.523743 
	C960.650757,301.931854 956.655640,304.139435 953.831055,304.146393 
	C947.924072,304.160858 947.294800,309.165131 946.534302,314.176086 
	C945.064148,310.347473 948.162170,305.018188 942.475525,304.170898 
	C938.836853,303.628723 934.967712,304.633575 931.124817,304.951294 
	C931.986755,303.099274 933.032471,300.852173 934.124451,298.505798 
	C930.214233,297.097656 927.752625,297.950592 926.520142,301.919800 
	C926.005005,303.578857 924.883057,305.049500 923.966309,307.375275 
M678.909851,303.636261 
	C677.939941,306.654724 676.338257,309.638214 676.168823,312.700928 
	C675.980469,316.107147 674.403381,316.916290 671.658447,316.987244 
	C668.260254,317.075043 664.321960,317.650879 663.160095,313.303894 
	C661.311401,306.387390 667.264648,298.784149 674.316895,299.087341 
	C678.612305,299.272064 680.454529,297.861328 679.888794,293.526398 
	C678.839294,293.117523 677.839966,292.468018 676.784302,292.357605 
	C667.431885,291.379639 659.281738,291.793549 656.326172,303.229645 
	C655.760559,305.418121 655.170837,307.654633 655.048279,309.893890 
	C654.540222,319.180023 656.447876,323.999023 666.866333,323.036316 
	C669.490540,322.793823 672.156250,323.000000 674.509644,323.000000 
	C675.022705,321.128204 675.432617,319.632538 676.188721,316.873810 
	C678.621704,324.406494 683.887512,322.862976 688.532166,323.011719 
	C693.606140,323.174225 696.491516,320.180267 697.873108,315.896332 
	C698.800049,313.022278 698.635193,309.801453 699.006226,306.741547 
	C699.569763,302.093262 696.359985,299.792664 692.866455,299.202698 
	C688.082031,298.394806 682.844666,298.133148 678.909851,303.636261 
M770.959961,313.259094 
	C771.041077,311.536987 771.122192,309.814880 771.223022,307.674622 
	C774.711609,309.075531 773.029236,315.450378 777.802368,313.853394 
	C780.456360,312.965393 782.613647,310.592865 785.243530,308.711456 
	C784.510681,313.269501 783.745483,318.028839 782.968689,322.860321 
	C785.974915,322.860321 788.277893,322.860321 790.980774,322.860321 
	C792.748413,313.022705 794.504028,303.252014 796.246826,293.552460 
	C784.540649,289.983368 783.819763,301.253204 778.234619,305.612061 
	C773.075439,290.016571 775.980896,293.017365 765.929993,293.398254 
	C764.194763,303.094788 762.447998,312.855316 760.673218,322.772705 
	C763.956177,322.772705 766.393250,322.772705 768.716248,322.772705 
	C769.345093,319.687836 769.924988,316.842865 770.959961,313.259094 
M713.956238,316.631805 
	C713.700989,321.186401 716.707764,322.588318 720.405396,322.945770 
	C723.208191,323.216736 726.058167,323.013977 728.887085,322.996796 
	C733.649048,322.967834 734.063843,322.435486 733.460876,317.223236 
	C721.556335,316.487000 721.556335,316.487000 721.495789,312.861206 
	C726.253906,312.861206 731.016907,312.861206 737.245483,312.861206 
	C735.848816,308.369843 735.786926,303.393433 733.277527,301.127594 
	C728.525574,296.836823 722.531311,298.631256 718.490356,300.896118 
	C712.558472,297.234528 707.253113,301.799286 702.338135,299.654266 
	C700.871460,307.748688 699.515625,315.231140 698.152771,322.752655 
	C705.896790,323.235992 705.874207,323.232208 707.025940,316.391663 
	C707.373901,314.324921 707.928711,312.293732 708.311279,310.231842 
	C709.014893,306.438904 710.999329,304.990051 714.323914,306.238586 
	C714.017761,309.677856 713.737793,312.822754 713.956238,316.631805 
M879.524231,305.081207 
	C879.029114,310.953094 878.533997,316.824951 877.894226,324.412506 
	C881.308655,322.798340 884.873657,322.268585 885.721680,320.462830 
	C887.310974,317.078796 887.731323,312.971436 887.877930,309.135895 
	C888.010437,305.669281 889.819275,305.146179 893.120483,304.976532 
	C892.142822,310.985077 891.197327,316.795990 890.227661,322.755371 
	C892.739441,322.755371 895.327698,322.755371 898.043884,322.755371 
	C899.054565,316.969788 900.339355,311.433319 900.908752,305.824280 
	C901.436584,300.623566 899.577209,298.687592 894.536255,299.100769 
	C890.425354,299.437653 886.527893,300.162781 882.270691,299.206116 
	C879.099548,298.493500 875.506165,299.906036 872.098083,299.927338 
	C869.158813,299.945679 867.723389,300.811005 867.952698,303.934662 
	C868.032349,305.019958 867.536194,306.140808 867.351257,307.253418 
	C866.493835,312.409607 865.653381,317.568604 864.808228,322.718323 
	C868.057800,322.718323 870.483276,322.718323 872.666382,322.718323 
	C873.480957,318.102325 874.613159,313.820496 874.868286,309.487030 
	C875.037292,306.615295 876.037415,305.368042 879.524231,305.081207 
M641.903015,321.640503 
	C648.311951,314.409973 640.718445,312.068024 635.944397,308.405365 
	C644.784851,307.611359 644.784851,307.611359 645.723389,304.000916 
	C642.504883,304.000916 639.296143,303.637665 636.230103,304.141724 
	C634.485107,304.428619 632.007996,305.854950 631.600647,307.269348 
	C631.093201,309.031189 631.847961,311.718414 633.031067,313.258148 
	C634.405212,315.046539 636.834534,316.024231 640.111938,318.234680 
	C635.619507,318.749542 632.459656,319.111694 629.188782,319.486542 
	C628.322021,312.405640 627.454834,305.321167 626.609131,298.412445 
	C620.569214,296.453949 617.603210,299.179962 615.652039,304.641663 
	C613.932922,309.453857 611.299316,313.935974 609.142151,318.597412 
	C608.569824,319.834259 608.264587,321.194672 607.836792,322.498383 
	C608.206604,322.923492 608.576416,323.348602 608.946167,323.773712 
	C610.699280,322.655151 613.274719,321.932617 614.041931,320.339325 
	C615.895142,316.490845 618.257751,314.852509 622.731750,316.402100 
	C623.259216,318.361877 623.866455,320.618134 624.605042,323.362183 
	C630.170959,322.968445 635.709167,322.576660 641.903015,321.640503 
M830.573181,299.000000 
	C827.806213,300.080139 823.735107,300.391052 822.548340,302.403168 
	C820.196411,306.390717 818.509338,311.267822 818.263916,315.868835 
	C817.985596,321.086060 820.978638,322.992676 826.373779,322.999054 
	C830.490845,323.003906 834.607910,323.000000 838.931580,323.000000 
	C840.771179,312.233795 842.551331,301.815735 844.358887,291.237549 
	C841.073975,291.237549 838.650574,291.237549 836.309387,291.237549 
	C835.272644,294.386414 837.739380,299.473145 830.573181,299.000000 
M865.965698,304.184174 
	C865.965698,302.574280 865.965698,300.964355 865.965698,299.000549 
	C861.171570,299.000549 856.704895,298.800812 852.264282,299.055359 
	C847.597839,299.322876 844.338745,302.156921 843.313782,306.500214 
	C842.119080,311.562775 839.964294,317.017487 844.358765,321.752808 
	C845.028259,322.474243 846.333435,322.921021 847.357483,322.944946 
	C852.449768,323.064178 857.546387,322.999420 862.532776,322.999420 
	C863.574768,316.735229 864.552856,310.855377 865.965698,304.184174 
M809.039551,311.712860 
	C809.584839,316.207642 807.250732,317.346924 802.627625,316.805115 
	C803.435425,311.157074 804.205078,305.775391 805.004700,300.183777 
	C802.243103,300.183777 799.810608,300.183777 796.899170,300.183777 
	C796.258301,306.249878 795.548523,312.197876 795.032288,318.162628 
	C794.750183,321.421112 796.446838,323.042694 799.760071,323.010132 
	C804.065369,322.967834 808.376526,323.114105 812.673523,322.920410 
	C813.779724,322.870514 815.658081,322.002594 815.797729,321.252747 
	C817.088135,314.323334 818.074951,307.337341 819.171143,300.230835 
	C816.104187,300.230835 813.680725,300.230835 811.448669,300.230835 
	C810.776489,303.987000 810.150757,307.483643 809.039551,311.712860 
M752.400330,305.000000 
	C753.531067,304.936981 754.661804,304.873932 757.320435,304.725739 
	C755.736084,302.288330 754.768311,299.340027 753.591064,299.253876 
	C749.577271,298.960175 745.321594,299.108917 741.501770,300.244507 
	C739.613831,300.805817 737.475403,303.806030 737.289795,305.868317 
	C737.112305,307.840179 738.936035,310.426208 740.584106,312.009430 
	C742.327393,313.684174 744.901550,314.494080 747.112732,315.681763 
	C747.112732,316.164581 747.112671,316.647400 747.112610,317.130249 
	C744.756775,317.412506 742.336182,318.182220 740.058044,317.879547 
	C734.673340,317.164185 734.475464,317.207672 735.692322,323.000000 
	C739.309448,323.000000 742.962097,322.954865 746.613159,323.011353 
	C751.213867,323.082489 754.030701,320.803711 754.954102,316.427551 
	C755.949097,311.711975 752.653809,309.698914 749.096313,308.036163 
	C747.697754,307.382477 746.233826,306.868622 744.799683,306.291077 
	C744.926758,305.860718 745.053894,305.430359 745.180969,305.000000 
	C747.280396,305.000000 749.379822,305.000000 752.400330,305.000000 
M1021.984436,147.071899 
	C1018.456360,142.598770 1015.432922,141.846680 1011.923767,144.569229 
	C1008.555298,147.182678 1007.718201,151.645691 1010.947876,154.134689 
	C1012.941711,155.671249 1016.503967,156.300568 1019.028015,155.764389 
	C1023.095520,154.900284 1021.866516,150.909988 1021.984436,147.071899 
M970.878967,301.658478 
	C973.156799,302.202026 975.434570,302.745544 977.712402,303.289093 
	C978.021057,302.760529 978.329712,302.231995 978.638428,301.703461 
	C976.698792,300.135895 974.955017,297.669861 972.777161,297.195190 
	C968.731018,296.313232 966.021729,299.087189 962.985229,303.516510 
	C966.245483,302.819489 968.200378,302.401520 970.878967,301.658478 
M980.574585,322.999603 
	C985.338440,322.514221 982.050171,319.238953 983.090027,317.173218 
	C981.156494,317.173218 979.757263,317.173218 978.365906,317.173218 
	C977.938721,319.110443 977.549194,320.876678 977.113708,322.851685 
	C978.091492,322.908142 978.885376,322.954010 980.574585,322.999603 
z"/>
<path fill="#BF2030" opacity="1.000000" stroke="none" 
	d="
M359.109283,207.089172 
	C356.021759,219.052750 350.106659,229.601715 342.363312,239.062012 
	C325.353790,259.843109 302.555145,269.726471 276.618225,274.156708 
	C260.510193,276.908142 244.332001,277.809937 228.185089,276.822357 
	C202.801498,275.269806 177.594345,271.891937 152.701492,266.390045 
	C124.440643,260.143799 96.121346,254.161819 67.823616,248.082825 
	C65.910706,247.671906 63.825195,247.736710 62.077400,246.983154 
	C60.534706,246.318039 58.163952,244.695328 58.265335,243.712769 
	C58.458046,241.845093 59.726437,239.290283 61.296822,238.489960 
	C73.166153,232.440887 85.241692,226.798294 97.206467,220.934174 
	C116.568542,211.444565 135.715347,201.491776 155.297134,192.482422 
	C169.412521,185.988098 184.087204,180.709351 199.179932,174.753693 
	C200.237213,174.674576 200.626968,174.730194 201.148544,175.107880 
	C220.872055,191.796707 241.364243,206.816391 264.799561,217.338058 
	C282.907013,225.467743 301.729248,229.631119 321.573334,225.921677 
	C335.037689,223.404800 347.135223,217.804230 357.123657,207.660370 
	C357.893768,207.287231 358.501526,207.188202 359.109283,207.089172 
z"/>
<path fill="#FFFFFF" opacity="1.000000" stroke="none" 
	d="
M659.000000,232.000000 
	C659.000000,196.193939 659.000000,160.887878 659.000000,124.566925 
	C667.895935,125.079910 676.616333,125.056854 685.168823,126.243935 
	C691.896790,127.177765 697.977112,136.382828 697.989685,143.953659 
	C698.020996,162.768478 698.000000,181.583389 698.000000,201.836639 
	C700.363525,198.915161 701.942200,196.819946 703.668701,194.854584 
	C711.252014,186.222183 718.893250,177.640640 726.482971,169.013870 
	C731.030457,163.845078 735.321899,158.430176 740.143311,153.534454 
	C741.902405,151.748291 744.840088,150.211334 747.277039,150.154953 
	C761.070129,149.835800 774.874451,150.000580 789.803833,150.000580 
	C785.510681,155.278198 781.825012,159.883224 778.060547,164.422943 
	C766.601318,178.242035 755.043762,191.980667 743.706360,205.898773 
	C741.992676,208.002670 737.311890,208.976990 739.773132,213.216797 
	C741.303955,215.853836 743.235657,218.287048 745.187256,220.646408 
	C760.019897,238.578476 774.901855,256.469696 790.285828,274.996796 
	C774.945679,274.996796 760.364014,275.085175 745.786621,274.876587 
	C744.104492,274.852509 742.032532,273.543304 740.844604,272.205383 
	C733.782776,264.252197 726.942261,256.102905 719.997803,248.044983 
	C716.357666,243.821198 712.874146,239.423096 708.864990,235.578140 
	C707.484314,234.253998 704.562683,233.596924 702.632385,234.002579 
	C699.625366,234.634521 697.884094,236.900818 697.937805,240.496262 
	C698.106628,251.803467 698.000000,263.114777 698.000000,274.711670 
	C685.050476,274.711670 672.312500,274.711670 659.000000,274.711670 
	C659.000000,260.691193 659.000000,246.595596 659.000000,232.000000 
z"/>
<path fill="#FFFFFF" opacity="1.000000" stroke="none" 
	d="
M400.000000,234.000000 
	C400.000000,197.527084 400.000000,161.554169 400.000000,124.947617 
	C410.742828,125.965378 421.794800,122.173347 431.415649,129.765289 
	C435.439850,132.940811 437.956207,136.816528 437.973297,141.963791 
	C438.039185,161.780334 438.000000,181.597244 438.000000,202.008392 
	C451.444702,186.700348 464.891541,172.058365 477.472168,156.706543 
	C481.934143,151.261719 486.697052,149.818726 493.073181,149.935623 
	C505.193512,150.157822 517.320801,150.000000 530.380005,150.000000 
	C512.916870,170.940384 495.938446,191.299454 478.733521,211.930191 
	C495.843323,232.760559 512.936218,253.570343 530.538269,275.000000 
	C515.308167,275.000000 501.168579,275.144684 487.037964,274.853455 
	C484.759186,274.806458 481.879242,273.375885 480.367004,271.637085 
	C470.404327,260.181641 460.867950,248.354462 450.859039,236.940964 
	C449.087891,234.921204 446.835815,232.248474 442.736481,233.846054 
	C438.566650,235.471115 438.133423,238.679932 438.073395,241.994034 
	C437.877747,252.800659 438.000061,263.613037 438.000061,274.710999 
	C425.385254,274.710999 412.980438,274.710999 400.000000,274.710999 
	C400.000000,261.358795 400.000000,247.929398 400.000000,234.000000 
z"/>
<path fill="#FFFFFF" opacity="1.000000" stroke="none" 
	d="
M869.999390,184.209412 
	C867.944702,181.643250 866.237976,178.203003 863.775024,177.529831 
	C854.196594,174.911850 844.375061,173.084702 834.572510,176.910461 
	C832.801697,177.601578 830.375122,177.930862 829.459839,179.259674 
	C826.097107,184.141754 821.399109,184.150513 816.313354,184.051544 
	C807.005310,183.870453 797.691345,184.000000 787.995667,184.000000 
	C789.503357,172.322800 795.622742,164.116852 804.935730,158.016739 
	C813.939270,152.119370 824.106018,149.707565 834.632324,149.096786 
	C842.932739,148.615158 851.315796,148.534088 859.604065,149.110413 
	C871.700134,149.951492 883.707336,151.856583 893.981384,159.043213 
	C902.156372,164.761505 906.970093,172.591476 906.984619,182.834625 
	C907.027710,213.314774 907.000000,243.795044 907.000000,275.064789 
	C897.313843,273.673065 886.914734,278.553009 879.160278,270.976685 
	C871.629761,272.735779 864.720032,275.041809 857.641174,275.831024 
	C848.471741,276.853333 839.160461,277.066681 829.923035,276.902649 
	C817.252625,276.677643 805.389282,273.136871 795.115356,265.517731 
	C789.412659,261.288574 786.695312,254.765533 785.221191,248.153473 
	C783.444092,240.182220 783.734741,232.022537 786.374634,224.112671 
	C788.690308,217.174240 793.187256,212.225555 799.622559,208.767929 
	C809.984802,203.200409 820.841919,199.860565 832.667725,198.828201 
	C842.113342,198.003616 851.533875,196.090607 860.750305,193.796097 
	C865.051941,192.725159 869.980469,190.723160 869.999390,184.209412 
M822.900635,229.596848 
	C818.625610,236.456680 820.610779,248.240570 830.801880,249.943909 
	C835.133423,250.667892 839.627502,251.213669 843.973999,250.880203 
	C851.661560,250.290451 859.143494,247.845596 864.265869,241.985733 
	C871.195251,234.058777 871.908997,224.194153 870.695496,214.474335 
	C859.699585,216.790665 848.885254,218.606720 838.358948,221.478287 
	C832.978943,222.945923 828.114929,226.305054 822.900635,229.596848 
z"/>
<path fill="#FFFFFF" opacity="1.000000" stroke="none" 
	d="
M540.072083,266.006348 
	C525.692871,256.710449 519.392029,242.981522 516.987366,226.950027 
	C514.698059,211.687759 515.198425,196.583099 521.109436,182.212372 
	C527.441467,166.818253 539.446411,156.954147 555.094666,152.236191 
	C562.597290,149.974136 570.771790,149.796616 578.677368,149.049393 
	C589.853088,147.993073 600.869751,149.072891 611.444946,153.023376 
	C631.203247,160.404343 642.531494,174.900803 647.040100,195.255371 
	C650.253418,209.761993 649.855896,224.090012 644.952271,238.066544 
	C638.127075,257.520081 624.853455,270.141022 604.224670,273.934845 
	C596.090393,275.430817 587.776855,276.892853 579.562378,276.801117 
	C565.739014,276.646759 552.354187,273.723907 540.072083,266.006348 
M556.405579,231.924515 
	C558.900879,239.369034 563.564758,244.446426 570.994873,247.675568 
	C585.773987,254.098557 603.274902,246.418427 608.166809,230.983398 
	C610.596680,223.316681 611.233643,215.670761 610.969299,207.838516 
	C610.347473,189.410538 598.584473,174.180161 577.233398,176.950851 
	C566.993469,178.279663 557.591675,186.583237 554.941162,196.597168 
	C551.842834,208.302719 553.353516,219.731155 556.405579,231.924515 
z"/>
<path fill="#FECD08" opacity="1.000000" stroke="none" 
	d="
M201.016724,174.785812 
	C200.626968,174.730194 200.237213,174.674576 199.553391,174.576508 
	C184.486664,161.166077 169.764130,147.742126 154.919266,134.454834 
	C147.960297,128.226013 140.631210,122.405823 133.779846,116.065460 
	C132.232513,114.633522 131.085831,111.638123 131.455856,109.684639 
	C131.681335,108.494217 135.188171,107.144432 137.169907,107.219376 
	C142.349319,107.415245 147.484268,108.625519 152.666718,108.938705 
	C161.734604,109.486694 170.844147,109.399757 179.901260,110.059395 
	C195.100800,111.166382 210.287506,112.504364 225.451584,114.024826 
	C236.314056,115.113976 247.132736,116.643982 257.964752,118.026093 
	C259.061768,118.166077 260.115845,118.642807 261.856140,118.998505 
	C262.943146,119.396309 263.363831,119.758865 263.818909,120.515167 
	C264.127686,122.007202 264.258606,123.166840 264.698242,124.194412 
	C269.798218,136.115158 274.944824,148.015945 279.605927,159.940598 
	C262.745026,159.240646 246.625320,161.404434 230.815201,165.372879 
	C220.730209,167.904266 210.939423,171.607819 201.016724,174.785812 
z"/>
<path fill="#FFFFFF" opacity="1.000000" stroke="none" 
	d="
M960.000000,248.999207 
	C960.000000,254.493073 960.048645,259.487732 959.988220,264.481079 
	C959.905090,271.355011 956.212280,274.991821 949.397888,274.997925 
	C940.104553,275.006256 930.811218,275.000000 921.000000,275.000000 
	C921.000000,273.131714 921.000000,271.528107 921.000000,269.924530 
	C921.000000,250.281158 920.931335,230.637497 921.020325,210.994522 
	C921.101013,193.194427 926.274780,177.503174 940.087219,165.353226 
	C948.955811,157.552216 959.583252,153.312714 970.818298,151.250137 
	C981.208679,149.342636 991.915588,149.159256 1002.790649,148.189148 
	C1002.790649,160.436417 1002.790649,171.498871 1002.790649,183.000000 
	C997.711487,183.000000 992.758789,183.166016 987.821594,182.959869 
	C980.951904,182.673050 974.628540,184.582321 968.968140,188.098602 
	C962.500305,192.116501 960.220276,198.857971 960.080750,206.051208 
	C959.806396,220.195816 960.000000,234.349503 960.000000,248.999207 
z"/>
<path fill="#1F9ED8" opacity="1.000000" stroke="none" 
	d="
M263.784515,120.121429 
	C263.363831,119.758865 262.943146,119.396309 262.260620,118.933487 
	C258.485077,107.535851 254.981644,96.235283 251.454041,84.942261 
	C249.179184,77.659637 246.719910,70.429138 244.694458,63.078518 
	C244.266830,61.526577 244.856567,59.052578 245.939728,57.941303 
	C246.721848,57.138905 249.500854,57.266552 250.701874,58.042843 
	C266.149963,68.027794 281.693329,77.891129 296.759186,88.433212 
	C308.386871,96.569473 319.962646,104.963127 330.514404,114.411697 
	C347.142853,129.301620 362.147064,145.965668 365.685944,169.087692 
	C367.514130,181.032364 366.733459,193.412888 359.809235,204.679092 
	C359.593628,204.952255 359.481598,205.025162 359.340027,204.606903 
	C358.809082,202.091248 358.239655,200.009262 358.058167,197.894012 
	C356.236115,176.658173 346.235565,159.882294 329.739044,146.918991 
	C310.371277,131.699371 287.406799,125.029037 263.784515,120.121429 
z"/>
<path fill="#532E83" opacity="1.000000" stroke="none" 
	d="
M359.481598,205.025162 
	C359.481598,205.025162 359.593628,204.952255 359.624451,205.012665 
	C359.637573,205.635483 359.619904,206.197906 359.355774,206.924744 
	C358.501526,207.188202 357.893768,207.287231 356.683655,207.690918 
	C354.420135,208.055573 352.683014,207.820511 351.110565,208.225250 
	C343.099182,210.287292 335.297943,208.855087 327.822266,206.280746 
	C304.960571,198.408051 291.276001,180.977097 281.365906,160.210144 
	C285.385986,160.524948 289.031982,160.620361 292.590210,161.229004 
	C317.465271,165.483795 338.006836,177.017181 353.181335,197.523956 
	C355.119995,200.143814 357.373779,202.530472 359.481598,205.025162 
z"/>
<path fill="#FFFFFF" opacity="1.000000" stroke="none" 
	d="
M924.001648,306.990540 
	C924.883057,305.049500 926.005005,303.578857 926.520142,301.919800 
	C927.752625,297.950592 930.214233,297.097656 934.124451,298.505798 
	C933.032471,300.852173 931.986755,303.099274 931.124817,304.951294 
	C934.967712,304.633575 938.836853,303.628723 942.475525,304.170898 
	C948.162170,305.018188 945.064148,310.347473 946.534302,314.176086 
	C947.294800,309.165131 947.924072,304.160858 953.831055,304.146393 
	C956.655640,304.139435 960.650757,301.931854 962.542603,306.523743 
	C966.265930,302.857056 971.283997,302.678650 975.283691,305.225952 
	C977.492126,306.632507 977.790405,311.038391 979.419983,315.330688 
	C973.627563,315.330688 969.472656,315.330688 964.667969,315.330688 
	C967.900208,321.058685 971.908447,318.428772 976.995667,317.638519 
	C975.633362,320.086151 975.168518,322.310028 973.968018,322.827667 
	C969.734131,324.653198 962.719666,322.560303 961.041504,320.183899 
	C959.184692,321.167206 957.531555,322.636658 955.708679,322.891388 
	C951.105469,323.534546 946.495850,323.508514 946.187256,316.191833 
	C942.587219,322.675354 938.626892,324.448730 932.863342,322.936676 
	C929.557251,322.069336 929.202576,320.959473 928.860596,308.989014 
	C927.548645,312.197479 926.702576,314.097321 925.987793,316.045349 
	C923.423828,323.033569 923.094299,323.262695 915.185242,322.746124 
	C914.129395,314.690125 913.064758,306.567322 911.968445,298.202362 
	C914.056458,298.202362 915.811157,298.202362 917.716919,298.202362 
	C918.246704,303.651855 918.767639,309.009644 919.392395,315.435791 
	C921.153931,312.331421 922.560120,309.853333 924.001648,306.990540 
M957.958130,318.559540 
	C959.343811,315.190643 960.729553,311.821747 962.224854,308.186401 
	C953.382568,307.821899 952.409790,308.530151 951.945557,313.759186 
	C951.579468,317.882751 952.983093,319.708466 957.958130,318.559540 
M935.531921,318.951080 
	C939.730591,317.866486 942.491760,313.472870 940.798645,309.920868 
	C940.402161,309.089081 937.454346,308.391785 936.808289,308.946442 
	C933.887817,311.453766 932.803467,314.696075 935.531921,318.951080 
z"/>
<path fill="#FFFFFF" opacity="1.000000" stroke="none" 
	d="
M679.166016,303.343140 
	C682.844666,298.133148 688.082031,298.394806 692.866455,299.202698 
	C696.359985,299.792664 699.569763,302.093262 699.006226,306.741547 
	C698.635193,309.801453 698.800049,313.022278 697.873108,315.896332 
	C696.491516,320.180267 693.606140,323.174225 688.532166,323.011719 
	C683.887512,322.862976 678.621704,324.406494 676.188721,316.873810 
	C675.432617,319.632538 675.022705,321.128204 674.509644,323.000000 
	C672.156250,323.000000 669.490540,322.793823 666.866333,323.036316 
	C656.447876,323.999023 654.540222,319.180023 655.048279,309.893890 
	C655.170837,307.654633 655.760559,305.418121 656.326172,303.229645 
	C659.281738,291.793549 667.431885,291.379639 676.784302,292.357605 
	C677.839966,292.468018 678.839294,293.117523 679.888794,293.526398 
	C680.454529,297.861328 678.612305,299.272064 674.316895,299.087341 
	C667.264648,298.784149 661.311401,306.387390 663.160095,313.303894 
	C664.321960,317.650879 668.260254,317.075043 671.658447,316.987244 
	C674.403381,316.916290 675.980469,316.107147 676.168823,312.700928 
	C676.338257,309.638214 677.939941,306.654724 679.166016,303.343140 
M685.329224,307.143036 
	C684.746216,310.247040 684.163208,313.351044 683.569946,316.509369 
	C689.728333,317.179993 691.375122,315.309753 690.949768,308.754852 
	C690.873047,307.573425 690.312683,305.591492 689.674622,305.462036 
	C688.553345,305.234406 687.199524,306.152252 685.329224,307.143036 
z"/>
<path fill="#FFFFFF" opacity="1.000000" stroke="none" 
	d="
M770.732422,313.628510 
	C769.924988,316.842865 769.345093,319.687836 768.716248,322.772705 
	C766.393250,322.772705 763.956177,322.772705 760.673218,322.772705 
	C762.447998,312.855316 764.194763,303.094788 765.929993,293.398254 
	C775.980896,293.017365 773.075439,290.016571 778.234619,305.612061 
	C783.819763,301.253204 784.540649,289.983368 796.246826,293.552460 
	C794.504028,303.252014 792.748413,313.022705 790.980774,322.860321 
	C788.277893,322.860321 785.974915,322.860321 782.968689,322.860321 
	C783.745483,318.028839 784.510681,313.269501 785.243530,308.711456 
	C782.613647,310.592865 780.456360,312.965393 777.802368,313.853394 
	C773.029236,315.450378 774.711609,309.075531 771.223022,307.674622 
	C771.122192,309.814880 771.041077,311.536987 770.732422,313.628510 
z"/>
<path fill="#FFFFFF" opacity="1.000000" stroke="none" 
	d="
M713.707031,316.299713 
	C713.737793,312.822754 714.017761,309.677856 714.323914,306.238586 
	C710.999329,304.990051 709.014893,306.438904 708.311279,310.231842 
	C707.928711,312.293732 707.373901,314.324921 707.025940,316.391663 
	C705.874207,323.232208 705.896790,323.235992 698.152771,322.752655 
	C699.515625,315.231140 700.871460,307.748688 702.338135,299.654266 
	C707.253113,301.799286 712.558472,297.234528 718.490356,300.896118 
	C722.531311,298.631256 728.525574,296.836823 733.277527,301.127594 
	C735.786926,303.393433 735.848816,308.369843 737.245483,312.861206 
	C731.016907,312.861206 726.253906,312.861206 721.495789,312.861206 
	C721.556335,316.487000 721.556335,316.487000 733.460876,317.223236 
	C734.063843,322.435486 733.649048,322.967834 728.887085,322.996796 
	C726.058167,323.013977 723.208191,323.216736 720.405396,322.945770 
	C716.707764,322.588318 713.700989,321.186401 713.707031,316.299713 
z"/>
<path fill="#FFFFFF" opacity="1.000000" stroke="none" 
	d="
M879.087097,305.044617 
	C876.037415,305.368042 875.037292,306.615295 874.868286,309.487030 
	C874.613159,313.820496 873.480957,318.102325 872.666382,322.718323 
	C870.483276,322.718323 868.057800,322.718323 864.808228,322.718323 
	C865.653381,317.568604 866.493835,312.409607 867.351257,307.253418 
	C867.536194,306.140808 868.032349,305.019958 867.952698,303.934662 
	C867.723389,300.811005 869.158813,299.945679 872.098083,299.927338 
	C875.506165,299.906036 879.099548,298.493500 882.270691,299.206116 
	C886.527893,300.162781 890.425354,299.437653 894.536255,299.100769 
	C899.577209,298.687592 901.436584,300.623566 900.908752,305.824280 
	C900.339355,311.433319 899.054565,316.969788 898.043884,322.755371 
	C895.327698,322.755371 892.739441,322.755371 890.227661,322.755371 
	C891.197327,316.795990 892.142822,310.985077 893.120483,304.976532 
	C889.819275,305.146179 888.010437,305.669281 887.877930,309.135895 
	C887.731323,312.971436 887.310974,317.078796 885.721680,320.462830 
	C884.873657,322.268585 881.308655,322.798340 877.894226,324.412506 
	C878.533997,316.824951 879.029114,310.953094 879.087097,305.044617 
z"/>
<path fill="#FFFFFF" opacity="1.000000" stroke="none" 
	d="
M641.575195,321.912689 
	C635.709167,322.576660 630.170959,322.968445 624.605042,323.362183 
	C623.866455,320.618134 623.259216,318.361877 622.731750,316.402100 
	C618.257751,314.852509 615.895142,316.490845 614.041931,320.339325 
	C613.274719,321.932617 610.699280,322.655151 608.946167,323.773712 
	C608.576416,323.348602 608.206604,322.923492 607.836792,322.498383 
	C608.264587,321.194672 608.569824,319.834259 609.142151,318.597412 
	C611.299316,313.935974 613.932922,309.453857 615.652039,304.641663 
	C617.603210,299.179962 620.569214,296.453949 626.609131,298.412445 
	C627.454834,305.321167 628.322021,312.405640 629.188782,319.486542 
	C632.459656,319.111694 635.619507,318.749542 640.111938,318.234680 
	C636.834534,316.024231 634.405212,315.046539 633.031067,313.258148 
	C631.847961,311.718414 631.093201,309.031189 631.600647,307.269348 
	C632.007996,305.854950 634.485107,304.428619 636.230103,304.141724 
	C639.296143,303.637665 642.504883,304.000916 645.723389,304.000916 
	C644.784851,307.611359 644.784851,307.611359 635.944397,308.405365 
	C640.718445,312.068024 648.311951,314.409973 641.575195,321.912689 
z"/>
<path fill="#FFFFFF" opacity="1.000000" stroke="none" 
	d="
M831.012573,299.000000 
	C837.739380,299.473145 835.272644,294.386414 836.309387,291.237549 
	C838.650574,291.237549 841.073975,291.237549 844.358887,291.237549 
	C842.551331,301.815735 840.771179,312.233795 838.931580,323.000000 
	C834.607910,323.000000 830.490845,323.003906 826.373779,322.999054 
	C820.978638,322.992676 817.985596,321.086060 818.263916,315.868835 
	C818.509338,311.267822 820.196411,306.390717 822.548340,302.403168 
	C823.735107,300.391052 827.806213,300.080139 831.012573,299.000000 
M828.046936,306.635712 
	C827.691956,308.351776 827.316406,310.063904 826.985901,311.784637 
	C825.930542,317.278870 825.990967,317.333557 831.897705,316.516876 
	C832.661255,312.854034 833.432556,309.153595 834.378357,304.616486 
	C831.899292,305.234009 830.272278,305.639282 828.046936,306.635712 
z"/>
<path fill="#FFFFFF" opacity="1.000000" stroke="none" 
	d="
M865.748291,304.579834 
	C864.552856,310.855377 863.574768,316.735229 862.532776,322.999420 
	C857.546387,322.999420 852.449768,323.064178 847.357483,322.944946 
	C846.333435,322.921021 845.028259,322.474243 844.358765,321.752808 
	C839.964294,317.017487 842.119080,311.562775 843.313782,306.500214 
	C844.338745,302.156921 847.597839,299.322876 852.264282,299.055359 
	C856.704895,298.800812 861.171570,299.000549 865.965698,299.000549 
	C865.965698,300.964355 865.965698,302.574280 865.748291,304.579834 
M851.466553,316.995209 
	C860.056396,316.469513 854.825195,308.856171 857.207642,304.776978 
	C854.719421,305.554169 852.009033,306.670258 851.216675,308.581482 
	C850.200562,311.032684 850.726990,314.123383 851.466553,316.995209 
z"/>
<path fill="#FFFFFF" opacity="1.000000" stroke="none" 
	d="
M809.282227,311.346558 
	C810.150757,307.483643 810.776489,303.987000 811.448669,300.230835 
	C813.680725,300.230835 816.104187,300.230835 819.171143,300.230835 
	C818.074951,307.337341 817.088135,314.323334 815.797729,321.252747 
	C815.658081,322.002594 813.779724,322.870514 812.673523,322.920410 
	C808.376526,323.114105 804.065369,322.967834 799.760071,323.010132 
	C796.446838,323.042694 794.750183,321.421112 795.032288,318.162628 
	C795.548523,312.197876 796.258301,306.249878 796.899170,300.183777 
	C799.810608,300.183777 802.243103,300.183777 805.004700,300.183777 
	C804.205078,305.775391 803.435425,311.157074 802.627625,316.805115 
	C807.250732,317.346924 809.584839,316.207642 809.282227,311.346558 
z"/>
<path fill="#FFFFFF" opacity="1.000000" stroke="none" 
	d="
M751.939819,305.000000 
	C749.379822,305.000000 747.280396,305.000000 745.180969,305.000000 
	C745.053894,305.430359 744.926758,305.860718 744.799683,306.291077 
	C746.233826,306.868622 747.697754,307.382477 749.096313,308.036163 
	C752.653809,309.698914 755.949097,311.711975 754.954102,316.427551 
	C754.030701,320.803711 751.213867,323.082489 746.613159,323.011353 
	C742.962097,322.954865 739.309448,323.000000 735.692322,323.000000 
	C734.475464,317.207672 734.673340,317.164185 740.058044,317.879547 
	C742.336182,318.182220 744.756775,317.412506 747.112610,317.130249 
	C747.112671,316.647400 747.112732,316.164581 747.112732,315.681763 
	C744.901550,314.494080 742.327393,313.684174 740.584106,312.009430 
	C738.936035,310.426208 737.112305,307.840179 737.289795,305.868317 
	C737.475403,303.806030 739.613831,300.805817 741.501770,300.244507 
	C745.321594,299.108917 749.577271,298.960175 753.591064,299.253876 
	C754.768311,299.340027 755.736084,302.288330 757.320435,304.725739 
	C754.661804,304.873932 753.531067,304.936981 751.939819,305.000000 
z"/>
<path fill="#FFFFFF" opacity="1.000000" stroke="none" 
	d="
M1021.991699,147.496658 
	C1021.866516,150.909988 1023.095520,154.900284 1019.028015,155.764389 
	C1016.503967,156.300568 1012.941711,155.671249 1010.947876,154.134689 
	C1007.718201,151.645691 1008.555298,147.182678 1011.923767,144.569229 
	C1015.432922,141.846680 1018.456360,142.598770 1021.991699,147.496658 
z"/>
<path fill="#FFFFFF" opacity="1.000000" stroke="none" 
	d="
M970.517090,301.821014 
	C968.200378,302.401520 966.245483,302.819489 962.985229,303.516510 
	C966.021729,299.087189 968.731018,296.313232 972.777161,297.195190 
	C974.955017,297.669861 976.698792,300.135895 978.638428,301.703461 
	C978.329712,302.231995 978.021057,302.760529 977.712402,303.289093 
	C975.434570,302.745544 973.156799,302.202026 970.517090,301.821014 
z"/>
<path fill="#FFFFFF" opacity="1.000000" stroke="none" 
	d="
M980.126892,322.999725 
	C978.885376,322.954010 978.091492,322.908142 977.113708,322.851685 
	C977.549194,320.876678 977.938721,319.110443 978.365906,317.173218 
	C979.757263,317.173218 981.156494,317.173218 983.090027,317.173218 
	C982.050171,319.238953 985.338440,322.514221 980.126892,322.999725 
z"/>
<path fill="#EF7F22" opacity="1.000000" stroke="none" 
	d="
M280.951172,160.228271 
	C291.276001,180.977097 304.960571,198.408051 327.822266,206.280746 
	C335.297943,208.855087 343.099182,210.287292 351.110565,208.225250 
	C352.683014,207.820511 354.420135,208.055573 356.521301,207.965027 
	C347.135223,217.804230 335.037689,223.404800 321.573334,225.921677 
	C301.729248,229.631119 282.907013,225.467743 264.799561,217.338058 
	C241.364243,206.816391 220.872055,191.796707 201.148544,175.107880 
	C210.939423,171.607819 220.730209,167.904266 230.815201,165.372879 
	C246.625320,161.404434 262.745026,159.240646 279.829102,160.002991 
	C280.525360,160.046844 280.951172,160.228271 280.951172,160.228271 
z"/>
<path fill="#000000" opacity="1.000000" stroke="none" 
	d="
M822.959167,229.203064 
	C828.114929,226.305054 832.978943,222.945923 838.358948,221.478287 
	C848.885254,218.606720 859.699585,216.790665 870.695496,214.474335 
	C871.908997,224.194153 871.195251,234.058777 864.265869,241.985733 
	C859.143494,247.845596 851.661560,250.290451 843.973999,250.880203 
	C839.627502,251.213669 835.133423,250.667892 830.801880,249.943909 
	C820.610779,248.240570 818.625610,236.456680 822.959167,229.203064 
z"/>
<path fill="#000000" opacity="1.000000" stroke="none" 
	d="
M556.216370,231.555389 
	C553.353516,219.731155 551.842834,208.302719 554.941162,196.597168 
	C557.591675,186.583237 566.993469,178.279663 577.233398,176.950851 
	C598.584473,174.180161 610.347473,189.410538 610.969299,207.838516 
	C611.233643,215.670761 610.596680,223.316681 608.166809,230.983398 
	C603.274902,246.418427 585.773987,254.098557 570.994873,247.675568 
	C563.564758,244.446426 558.900879,239.369034 556.216370,231.555389 
z"/>
<path fill="#11703A" opacity="1.000000" stroke="none" 
	d="
M281.365906,160.210144 
	C280.951172,160.228271 280.525360,160.046844 280.302185,159.984436 
	C274.944824,148.015945 269.798218,136.115158 264.698242,124.194412 
	C264.258606,123.166840 264.127686,122.007202 263.818909,120.515167 
	C287.406799,125.029037 310.371277,131.699371 329.739044,146.918991 
	C346.235565,159.882294 356.236115,176.658173 358.058167,197.894012 
	C358.239655,200.009262 358.809082,202.091248 359.340027,204.606903 
	C357.373779,202.530472 355.119995,200.143814 353.181335,197.523956 
	C338.006836,177.017181 317.465271,165.483795 292.590210,161.229004 
	C289.031982,160.620361 285.385986,160.524948 281.365906,160.210144 
z"/>
<path fill="#000000" opacity="1.000000" stroke="none" 
	d="
M957.576172,318.763977 
	C952.983093,319.708466 951.579468,317.882751 951.945557,313.759186 
	C952.409790,308.530151 953.382568,307.821899 962.224854,308.186401 
	C960.729553,311.821747 959.343811,315.190643 957.576172,318.763977 
z"/>
<path fill="#000000" opacity="1.000000" stroke="none" 
	d="
M935.232178,318.669128 
	C932.803467,314.696075 933.887817,311.453766 936.808289,308.946442 
	C937.454346,308.391785 940.402161,309.089081 940.798645,309.920868 
	C942.491760,313.472870 939.730591,317.866486 935.232178,318.669128 
z"/>
<path fill="#000000" opacity="1.000000" stroke="none" 
	d="
M685.636169,306.866699 
	C687.199524,306.152252 688.553345,305.234406 689.674622,305.462036 
	C690.312683,305.591492 690.873047,307.573425 690.949768,308.754852 
	C691.375122,315.309753 689.728333,317.179993 683.569946,316.509369 
	C684.163208,313.351044 684.746216,310.247040 685.636169,306.866699 
z"/>
<path fill="#000000" opacity="1.000000" stroke="none" 
	d="
M828.346069,306.340149 
	C830.272278,305.639282 831.899292,305.234009 834.378357,304.616486 
	C833.432556,309.153595 832.661255,312.854034 831.897705,316.516876 
	C825.990967,317.333557 825.930542,317.278870 826.985901,311.784637 
	C827.316406,310.063904 827.691956,308.351776 828.346069,306.340149 
z"/>
<path fill="#000000" opacity="1.000000" stroke="none" 
	d="
M851.027649,316.966858 
	C850.726990,314.123383 850.200562,311.032684 851.216675,308.581482 
	C852.009033,306.670258 854.719421,305.554169 857.207642,304.776978 
	C854.825195,308.856171 860.056396,316.469513 851.027649,316.966858 
z"/>
</svg>