<?xml version="1.0" encoding="utf-8"?>
<!-- Generator: Adobe Illustrator 27.0.0, SVG Export Plug-In . SVG Version: 6.00 Build 0)  -->
<svg version="1.1" id="Layer_1" xmlns="http://www.w3.org/2000/svg" xmlns:xlink="http://www.w3.org/1999/xlink" x="0px" y="0px"
	 viewBox="0 0 1600 1920" style="enable-background:new 0 0 1600 1920;" xml:space="preserve">
<style type="text/css">
	.st0{fill:#BA2227;}
	.st1{fill:#FFCB08;}
	.st2{fill:#E77A23;}
	.st3{fill:#522A79;}
	.st4{fill:#0F6C39;}
	.st5{fill:#2B98D4;}
	.st6{fill:#1D1D1B;}
	.st7{fill:#FFFFFF;}
</style>
<g>
	<path class="st0" d="M235.23,853.26c-32.74,11.51-65.41,30.71-88.46,40.98c-3.12,1.39-2.9,4.4,0.38,4.97
		c54.25,9.32,164.03,49.08,188.99-25.54C304.44,901.7,267.01,879.8,235.23,853.26"/>
	<path class="st1" d="M275.34,818.31c-27.97-5.61-59.52-5.42-80.67-7.49c-3.27-0.32-4.43,2.37-1.92,4.49
		c11.72,9.9,26.38,24.52,42.48,37.95c17.48-6.14,34.98-10.05,51.05-9.26C282.02,835.99,278.46,827.13,275.34,818.31"/>
	<path class="st2" d="M336.23,873.01c-0.14,0.27-0.24,0.54-0.38,0.81c-23.71,5.01-38.87-9.71-49.57-29.81
		c-16.07-0.8-33.57,3.11-51.05,9.26c31.78,26.54,69.21,48.44,100.91,20.4c0.06-0.17,0.13-0.32,0.2-0.5
		C336.3,873.1,336.27,873.06,336.23,873.01"/>
	<path class="st3" d="M286.28,844c10.7,20.11,25.87,34.82,49.57,29.82c0.14-0.27,0.24-0.54,0.38-0.81
		C323.55,853.05,306,844.97,286.28,844"/>
	<path class="st4" d="M275.34,818.31c3.12,8.83,6.68,17.68,10.94,25.69c19.72,0.97,37.27,9.05,49.95,29.01
		c0.07-0.14,0.13-0.27,0.19-0.41C334.65,838.81,307.35,824.74,275.34,818.31"/>
	<path class="st5" d="M263.77,782.65c3.43,9.89,7.02,22.72,11.57,35.65c32.01,6.43,59.31,20.5,61.08,54.3
		c20.53-41.92-39.88-72.85-68.72-93C265,777.72,262.68,779.52,263.77,782.65"/>
	<path class="st6" d="M748.22,814.87c0.65,0,1.28,0.17,1.9,0.5c0.62,0.33,1.1,0.81,1.45,1.43c0.34,0.62,0.52,1.27,0.52,1.94
		c0,0.67-0.17,1.31-0.51,1.92c-0.34,0.62-0.82,1.09-1.43,1.43c-0.61,0.34-1.26,0.51-1.92,0.51c-0.67,0-1.31-0.17-1.92-0.51
		c-0.62-0.34-1.09-0.82-1.44-1.43c-0.34-0.62-0.51-1.26-0.51-1.92c0-0.67,0.17-1.32,0.52-1.94c0.35-0.62,0.83-1.1,1.45-1.43
		C746.93,815.04,747.57,814.87,748.22,814.87 M748.22,815.51c-0.54,0-1.07,0.14-1.59,0.42c-0.51,0.28-0.91,0.68-1.21,1.2
		c-0.29,0.52-0.43,1.06-0.43,1.62c0,0.56,0.14,1.09,0.43,1.6c0.28,0.51,0.69,0.91,1.2,1.2c0.51,0.29,1.05,0.43,1.61,0.43
		c0.56,0,1.09-0.14,1.6-0.43c0.51-0.28,0.91-0.68,1.2-1.2c0.28-0.51,0.43-1.04,0.43-1.6c0-0.56-0.14-1.1-0.43-1.62
		c-0.29-0.52-0.69-0.92-1.21-1.2C749.28,815.65,748.76,815.51,748.22,815.51 M746.74,820.88v-4.17h1.43c0.49,0,0.84,0.04,1.06,0.12
		c0.22,0.08,0.39,0.21,0.52,0.4c0.13,0.19,0.19,0.39,0.19,0.61c0,0.31-0.11,0.57-0.33,0.8c-0.22,0.23-0.51,0.35-0.86,0.38
		c0.15,0.06,0.26,0.14,0.35,0.22c0.17,0.17,0.37,0.44,0.62,0.83l0.51,0.82h-0.82l-0.37-0.66c-0.29-0.52-0.52-0.84-0.7-0.97
		c-0.12-0.1-0.3-0.14-0.54-0.14h-0.39v1.77H746.74z M747.19,818.54h0.81c0.39,0,0.66-0.06,0.8-0.17c0.14-0.12,0.21-0.27,0.21-0.46
		c0-0.12-0.03-0.23-0.1-0.33c-0.07-0.1-0.16-0.17-0.28-0.22c-0.12-0.05-0.35-0.07-0.67-0.07h-0.76V818.54z"/>
	<path class="st6" d="M489.04,820.61c-7.57-2.34-16.04-2.97-25.44-1.9c-9.4,1.08-17.08,4.54-23.03,10.4
		c-3.67,3.51-6.36,7.91-8.08,13.18c-1.72,5.27-2.58,10.55-2.58,15.82c0,6.44,1.03,12.64,3.09,18.6c2.06,5.96,5.5,10.69,10.32,14.2
		c4.58,3.52,10.71,6.01,18.39,7.47c7.68,1.47,15.3,1.32,22.86-0.44c8.48-1.56,15.47-5.56,20.97-12.01
		c2.52-3.12,4.58-6.93,6.19-11.42c1.6-4.49,2.41-9.86,2.41-16.11c0-8.59-1.95-16.11-5.84-22.55
		C504.17,828.63,497.75,823.54,489.04,820.61 M486.29,875.69c-2.75,3.51-5.91,5.71-9.46,6.59c-3.56,0.88-7.05,0.78-10.48-0.29
		c-3.44-1.07-5.85-2.39-7.22-3.96c-3.44-3.51-5.39-9.71-5.84-18.6c-0.46-8.88,1.72-15.57,6.53-20.07c1.6-1.36,4.12-2.49,7.56-3.37
		c3.44-0.87,6.87-0.83,10.31,0.15c3.44,0.98,6.47,3.22,9.11,6.74c2.63,3.52,3.95,8.79,3.95,15.82
		C490.53,866.51,489.04,872.17,486.29,875.69"/>
	<path class="st6" d="M668.49,823.83c-6.43-3.71-16.05-5.57-28.88-5.57c-11.46,0-20.28,2.25-26.47,6.74
		c-5.5,3.91-8.71,8.89-9.63,14.94h23.04c1.14-2.15,2.97-3.61,5.5-4.39c2.52-0.78,5.39-1.17,8.59-1.17c2.98,0,6.24,0.44,9.8,1.32
		c3.55,0.88,5.33,2.78,5.33,5.71c0,3.91-5.04,6.45-15.13,7.62c-2.06,0.19-3.9,0.44-5.5,0.73c-1.61,0.29-2.98,0.43-4.13,0.43
		c-8.71,1.17-15.87,3.52-21.49,7.04c-5.62,3.51-8.42,9.38-8.42,17.58c0,8.79,3.09,15.09,9.28,18.9c6.19,3.81,13.41,5.71,21.66,5.71
		c4.13,0,8.88-0.25,14.27-0.73c5.23-0.47,10.18-1.73,14.87-3.77c0.21,0.26,0.44,0.51,0.68,0.75c1.85,1.84,4.06,2.76,6.64,2.76h9.96
		v-31.54v-3.47v-23.2C678.46,833.21,675.13,827.74,668.49,823.83 M656.1,866.03c0,5.47-1.84,9.77-5.5,12.9
		c-3.67,3.13-8.71,4.69-15.13,4.69c-3.9,0-6.88-0.78-8.94-2.35c-2.06-1.76-3.1-4.1-3.1-7.03c0-2.15,0.8-4.3,2.41-6.45
		c1.83-1.56,4.81-2.83,8.94-3.81l7.91-1.46c5.72-1.17,10.19-2.44,13.4-3.81V866.03z"/>
	<path class="st6" d="M737.94,818.26h-1.72c-6.19,0-12.2,0.7-18.05,2.08c-5.84,1.39-10.95,3.57-15.29,6.55
		c-4.59,3.18-8.2,7.39-10.83,12.65c-2.64,5.26-3.95,11.76-3.95,19.51v39.4h17.64c3.56,0,6.45-2.89,6.45-6.45
		c0-0.14-0.01-0.27-0.02-0.41v-34.92c0-5.95,1.6-10.32,4.81-13.1c3.21-2.78,8.13-4.17,14.78-4.17h7.91v-21.14H737.94z"/>
	<path class="st6" d="M603.44,819.24h-25.96l-0.02,0.02c-2.04,0.01-3.85,0.96-5.03,2.44l-0.01,0l-27.09,31.23v-38.07
		c0-2.97-1.15-5.61-3.44-7.91c-2.29-2.29-5.04-3.44-8.25-3.44h-12.37v94.88h24.06v-22.43c0-0.25,0.03-0.5,0.08-0.73
		c0.36-2.04,2.14-3.59,4.29-3.59c0.13,0,0.26,0.03,0.39,0.04c1.35-0.01,2.81,0.88,4.4,2.72c0.92,1.06,13.77,16.18,18.59,21.86
		c0.01,0.01,0.03,0.02,0.04,0.02c1.18,1.3,2.88,2.12,4.77,2.12c0.02,0,0.03,0,0.05,0l0,0h25.84l-33-40.13L603.44,819.24z"/>
	<path class="st6" d="M438.12,819.24h-25.96l-0.02,0.02c-2.04,0.01-3.85,0.96-5.03,2.44l-0.01,0l-27.09,31.23v-38.07
		c0-2.97-1.15-5.61-3.44-7.91c-2.29-2.29-5.04-3.44-8.25-3.44h-12.37v94.88h24.07v-22.43c0-0.25,0.03-0.5,0.08-0.73
		c0.37-2.04,2.14-3.59,4.29-3.59c0.13,0,0.26,0.03,0.39,0.04c1.35-0.01,2.81,0.88,4.4,2.72c0.92,1.06,13.77,16.18,18.6,21.86
		c0.01,0.01,0.03,0.02,0.04,0.02c1.18,1.3,2.88,2.12,4.77,2.12c0.02,0,0.03,0,0.05,0l0,0h25.84l-33-40.13L438.12,819.24z"/>
	<path class="st6" d="M465.9,935.44l-0.6-4.81h-5.5l-2.39,4.81h-3.34l8.18-17.11h4.81l2.17,17.11H465.9z M464.54,923.28
		c-0.12-0.87-0.14-1.77-0.12-2.72h-0.21c-0.35,0.94-0.69,1.84-1.11,2.72l-2.26,4.72h4.26L464.54,923.28z"/>
	<path class="st6" d="M480.62,924.75c-1.57-0.18-2.95-0.28-3.96-0.28c-1.13,0-2.49,0.09-2.49,1.43c0,0.67,0.41,0.88,1.66,1.43
		l0.99,0.44c2.26,1.01,3.2,1.82,3.2,3.68c0,3.06-2.42,4.3-6.01,4.3c-1.8,0-3.78-0.32-4.3-0.51l0.35-2.07
		c1.15,0.14,2.37,0.25,4.21,0.25c1.5,0,2.69-0.25,2.69-1.59c0-0.76-0.39-1.01-1.96-1.71l-0.9-0.39c-1.98-0.87-2.97-1.87-2.97-3.66
		c0-3.27,2.72-3.94,5.48-3.94c1.91,0,3.45,0.25,4.35,0.51L480.62,924.75z"/>
	<path class="st6" d="M505.4,918.28c-1.39-0.11-3.4-0.25-5.13-0.25c-3.15,0-4.79,1.05-5.64,5.67l-0.45,2.41
		c-0.17,0.94-0.26,1.73-0.26,2.35c0,2.64,1.36,3.32,3.88,3.32c1.73,0,3.77-0.11,5.19-0.23l-0.62,3.8c-1.08,0.25-4.05,0.57-5.81,0.57
		c-5.05,0-8-1.87-8-7c0-0.99,0.08-2.07,0.31-3.29l0.45-2.41c1.42-7.57,5.1-9.3,11.11-9.3c1.76,0,4.62,0.31,5.62,0.59L505.4,918.28z"
		/>
	<path class="st6" d="M519.77,926.87l-0.31,1.79c-0.93,5.33-4.05,7.2-8.79,7.2c-4.45,0-6.78-1.93-6.78-5.78c0-0.76,0-1.53,0.2-2.49
		l0.31-1.56c1.05-5.33,4.09-7.17,8.76-7.17c4.37,0,6.84,1.76,6.84,5.78C520,925.34,519.89,926.28,519.77,926.87 M512.74,922.62
		c-2.16,0-2.98,0.99-3.52,3.86l-0.34,1.76c-0.14,0.71-0.17,1.28-0.17,1.84c0,1.45,0.65,2.01,2.33,2.01c2.21,0,2.97-0.99,3.54-3.85
		l0.34-1.76c0.14-0.79,0.17-1.3,0.17-1.79C515.09,923.33,514.55,922.62,512.74,922.62"/>
	<path class="st6" d="M532.31,922.99c-1.79,0-3.8,0.31-5.13,0.74l-2.07,11.71h-4.96l2.86-16.16h4.57l-0.23,1.33
		c1.84-1.47,3.91-1.76,5.67-1.76L532.31,922.99z"/>
	<path class="st6" d="M546.71,928.69h-10.6c-0.11,0.71-0.2,1.16-0.2,1.53c0,1.3,0.71,1.96,3.32,1.96c1.67,0,3.09-0.08,6.12-0.28
		l-0.54,3.26c-1.33,0.31-3.66,0.71-6.55,0.71c-4.65,0-7.12-1.73-7.12-5.81c0-0.82,0.11-1.73,0.28-2.72l0.14-0.85
		c0.93-5.67,4.28-7.63,8.99-7.63c4.73,0,6.64,2.41,6.64,5.93C547.19,925.91,547.05,927.02,546.71,928.69 M540.11,922.37
		c-2.41,0-3.15,1.64-3.46,3.4l-0.06,0.23h5.78c0.11-0.59,0.17-1.11,0.17-1.47C542.54,923.3,542.01,922.37,540.11,922.37"/>
	<path class="st6" d="M561.2,922.48c-2.01-0.2-3.94-0.31-5.16-0.31c-1.19,0-2.61,0.06-2.61,1.42c0,0.68,0.51,0.96,1.85,1.5
		l1.36,0.54c2.81,1.11,3.94,2.35,3.94,4.62c0,4.2-3.49,5.59-8.08,5.59c-2.27,0-4.82-0.37-5.67-0.62l0.51-2.98
		c2.1,0.11,3.06,0.31,5.44,0.31c1.56,0,2.87-0.26,2.87-1.65c0-0.79-0.4-1.05-2.13-1.76l-1.19-0.48c-2.47-0.99-3.8-2.38-3.8-4.73
		c0-4.28,3.66-5.08,7.4-5.08c2.44,0,4.54,0.31,5.79,0.65L561.2,922.48z"/>
	<path class="st6" d="M586.98,935.44h-5.13l1.93-10.44c0.22-1.25,0.42-2.21,0.74-3.43h-0.06c-0.63,0.91-1.25,1.87-1.87,2.69
		l-3.63,4.9h-3.06l-1.73-4.9c-0.28-0.82-0.62-1.79-0.88-2.69h-0.06c-0.17,1.22-0.28,2.18-0.51,3.43l-1.9,10.44h-5.13l3.74-21.07h5.1
		l2.7,7.49c0.28,0.79,0.59,1.67,0.85,2.55h0.06c0.59-0.88,1.19-1.79,1.79-2.58l5.5-7.46h5.27L586.98,935.44z"/>
	<path class="st6" d="M604.76,935.44h-4.65l0.2-1.3c-1.73,0.99-3.66,1.73-5.73,1.73c-3.37,0-4.23-1.9-4.23-4.17
		c0-0.85,0.11-1.73,0.26-2.58l1.73-9.84h4.93l-1.79,10.24c-0.11,0.57-0.14,0.99-0.14,1.36c0,0.94,0.42,1.25,1.48,1.25
		c1.02,0,2.32-0.34,3.71-0.88l2.13-11.97h4.93L604.76,935.44z"/>
	<path class="st6" d="M621.89,935.44h-4.57l0.14-0.82c-1.25,0.68-2.89,1.25-4.71,1.25c-3.29,0-5.08-1.96-5.08-5.5
		c0-0.74,0.06-1.53,0.23-2.41l0.37-1.98c1.05-5.64,4-7.12,8.59-7.12c1.13,0,2.04,0.08,2.92,0.25l1.05-5.76h4.93L621.89,935.44z
		 M616.84,922.59c-2.04,0-3.12,0.57-3.72,3.86l-0.37,1.99c-0.11,0.65-0.17,1.22-0.17,1.64c0,1.45,0.68,2.04,2.27,2.04
		c0.96,0,1.93-0.26,2.81-0.57l1.56-8.73C618.4,922.68,617.46,922.59,616.84,922.59"/>
	<path class="st6" d="M634.45,935.44l0.14-0.82c-1.28,0.74-2.84,1.22-4.79,1.22c-3.2,0-4.99-1.9-4.99-5.48
		c0-0.71,0.06-1.53,0.23-2.38l0.37-1.99c1.08-5.78,3.74-7.14,9.56-7.14c1.87,0,4.51,0.14,6.89,0.42l-2.81,16.16H634.45z
		 M636.38,922.68c-0.8-0.06-1.87-0.08-2.33-0.08c-2.1,0-3.2,0.57-3.8,3.86l-0.37,1.99c-0.09,0.68-0.17,1.22-0.17,1.64
		c0,1.42,0.71,2.04,2.3,2.04c0.96,0,1.93-0.25,2.78-0.57L636.38,922.68z"/>
	<path class="st6" d="M666.84,925.17l-1.84,10.27h-4.9l1.81-10.52c0.09-0.51,0.17-0.94,0.17-1.3c0-0.71-0.28-1.08-1.42-1.08
		c-0.77,0-1.9,0.31-2.86,0.79c0,0.51-0.11,1.08-0.2,1.59l-1.84,10.52h-4.96l1.84-10.52c0.08-0.54,0.17-0.97,0.17-1.33
		c0-0.71-0.28-1.05-1.3-1.05c-0.94,0-2.07,0.42-2.92,0.82l-2.13,12.08h-4.96l2.86-16.16h4.62l-0.23,1.28c1.56-1.08,3.4-1.7,5.19-1.7
		c1.98,0,3,0.65,3.54,1.76c2.01-1.25,3.74-1.76,5.24-1.76c3.4,0,4.37,1.7,4.37,3.97C667.09,923.59,666.98,924.41,666.84,925.17"/>
	<path class="st6" d="M682.83,935.44h-4.7l-2.14-17.11h3.22l1.38,11.88c0.11,0.99,0.14,2.14,0.21,3.06
		c0.37-0.92,0.74-2.07,1.22-3.06l5.66-11.88h3.34L682.83,935.44z"/>
	<path class="st6" d="M700.1,928.48l-0.3,1.61c-0.76,4.08-3.02,5.69-6.68,5.69c-3.39,0-5.07-1.61-5.07-4.51
		c0-0.64,0.07-1.29,0.16-1.86l0.28-1.61c0.71-4.1,3.08-5.64,6.68-5.64c3.29,0,5.11,1.43,5.11,4.51
		C700.29,927.26,700.15,928.07,700.1,928.48 M694.9,924.73c-2.12,0-2.97,0.95-3.43,3.43l-0.3,1.61c-0.09,0.53-0.14,0.99-0.14,1.49
		c0,1.36,0.65,1.93,2.33,1.93c2.21,0,2.99-0.94,3.45-3.43l0.3-1.61c0.12-0.64,0.14-1.04,0.14-1.45
		C697.25,925.44,696.74,924.73,694.9,924.73"/>
	<path class="st6" d="M711.41,924.91c-1.61-0.14-2.72-0.21-3.46-0.21c-1.89,0-3.06,0.62-3.57,3.43l-0.3,1.64
		c-0.09,0.53-0.14,0.97-0.14,1.36c0,1.68,0.81,2.09,2.46,2.09c0.71,0,1.84-0.07,3.5-0.21l-0.37,2.28c-0.62,0.16-2.1,0.48-3.92,0.48
		c-3.36,0-4.68-1.79-4.68-4.51c0-0.58,0.05-1.2,0.16-1.87l0.3-1.63c0.71-3.96,2.69-5.62,6.45-5.62c1.96,0,3.34,0.32,3.92,0.48
		L711.41,924.91z"/>
	<path class="st6" d="M722.86,929.91h-8.66c-0.12,0.67-0.18,1.08-0.18,1.43c0,1.22,0.62,1.93,2.99,1.93c1.38,0,2.99-0.14,4.74-0.3
		l-0.37,2.26c-1.01,0.23-2.77,0.55-4.95,0.55c-3.66,0-5.37-1.47-5.37-4.56c0-0.67,0.07-1.43,0.23-2.23l0.16-0.81
		c0.88-4.33,3.25-6.03,6.75-6.03c3.38,0,5.04,1.7,5.04,4.63C723.25,927.72,723.11,928.64,722.86,929.91 M720.9,921.05l-1.8-2.09
		l-2.6,2.09h-2.88l3.71-3.43h3.78l2.49,3.43H720.9z M717.98,924.59c-2.4,0-3.11,1.66-3.39,3.13l-0.02,0.21h5.62
		c0.09-0.51,0.14-0.95,0.14-1.29C720.33,925.54,719.87,924.59,717.98,924.59"/>
	<polygon class="st6" points="723.55,935.44 724.15,931.89 727.21,931.89 726.62,935.44 	"/>
</g>
<g>
	<g>
		<path class="st0" d="M187.31-506.11c-32.74,11.51-65.41,30.71-88.46,40.98c-3.12,1.39-2.9,4.4,0.38,4.97
			c54.25,9.32,164.03,49.08,188.99-25.54C256.53-457.66,219.1-479.56,187.31-506.11"/>
		<path class="st1" d="M227.43-541.06c-27.97-5.61-59.52-5.42-80.67-7.49c-3.27-0.32-4.43,2.37-1.92,4.49
			c11.72,9.9,26.38,24.52,42.48,37.95c17.48-6.14,34.98-10.05,51.05-9.26C234.1-523.37,230.54-532.23,227.43-541.06"/>
		<path class="st2" d="M288.32-486.36c-0.14,0.27-0.24,0.54-0.38,0.81c-23.71,5.01-38.87-9.71-49.57-29.81
			c-16.07-0.8-33.57,3.11-51.05,9.26c31.78,26.54,69.21,48.44,100.91,20.4c0.06-0.17,0.13-0.32,0.2-0.5
			C288.39-486.26,288.35-486.3,288.32-486.36"/>
		<path class="st3" d="M238.37-515.36c10.7,20.11,25.87,34.82,49.57,29.82c0.14-0.27,0.24-0.54,0.38-0.81
			C275.64-506.32,258.09-514.39,238.37-515.36"/>
		<path class="st4" d="M227.43-541.06c3.12,8.83,6.68,17.68,10.94,25.69c19.72,0.97,37.27,9.05,49.95,29.01
			c0.07-0.14,0.13-0.27,0.19-0.41C286.74-520.56,259.44-534.63,227.43-541.06"/>
		<path class="st5" d="M215.85-576.71c3.43,9.89,7.02,22.72,11.57,35.65c32.01,6.43,59.31,20.5,61.08,54.3
			c20.53-41.92-39.88-72.85-68.72-93C217.09-581.64,214.77-579.84,215.85-576.71"/>
	</g>
	<g>
		<g>
			<path class="st7" d="M416.3-409c0.65,0,1.28,0.17,1.9,0.5c0.62,0.33,1.1,0.81,1.45,1.43c0.34,0.62,0.52,1.27,0.52,1.94
				c0,0.67-0.17,1.31-0.51,1.92c-0.34,0.62-0.82,1.09-1.43,1.43c-0.61,0.34-1.26,0.51-1.92,0.51c-0.67,0-1.31-0.17-1.92-0.51
				c-0.62-0.34-1.09-0.82-1.44-1.43c-0.34-0.62-0.51-1.26-0.51-1.92c0-0.67,0.17-1.32,0.52-1.94c0.35-0.62,0.83-1.1,1.45-1.43
				C415.01-408.84,415.65-409,416.3-409 M416.3-408.37c-0.54,0-1.07,0.14-1.59,0.42c-0.51,0.28-0.91,0.68-1.21,1.2
				c-0.29,0.52-0.43,1.06-0.43,1.62c0,0.56,0.14,1.09,0.43,1.6c0.28,0.51,0.69,0.91,1.2,1.2c0.51,0.29,1.05,0.43,1.61,0.43
				c0.56,0,1.09-0.14,1.6-0.43c0.51-0.28,0.91-0.68,1.2-1.2c0.28-0.51,0.43-1.05,0.43-1.6c0-0.56-0.14-1.1-0.43-1.62
				c-0.29-0.52-0.69-0.92-1.21-1.2C417.36-408.22,416.84-408.37,416.3-408.37 M414.82-402.99v-4.17h1.43c0.49,0,0.84,0.04,1.06,0.12
				c0.22,0.08,0.39,0.21,0.52,0.4c0.13,0.19,0.19,0.39,0.19,0.61c0,0.31-0.11,0.57-0.33,0.8c-0.22,0.23-0.51,0.35-0.86,0.38
				c0.15,0.06,0.26,0.14,0.35,0.22c0.17,0.17,0.37,0.44,0.62,0.83l0.51,0.82h-0.82l-0.37-0.66c-0.29-0.52-0.52-0.84-0.7-0.97
				c-0.12-0.1-0.3-0.14-0.54-0.14h-0.39v1.77H414.82z M415.27-405.34h0.81c0.39,0,0.66-0.06,0.8-0.17c0.14-0.12,0.21-0.27,0.21-0.46
				c0-0.12-0.03-0.23-0.1-0.33c-0.07-0.1-0.16-0.17-0.28-0.22c-0.12-0.05-0.35-0.07-0.67-0.07h-0.76V-405.34z"/>
			<path class="st7" d="M157.12-403.26c-7.57-2.34-16.04-2.97-25.44-1.9c-9.4,1.08-17.08,4.54-23.03,10.4
				c-3.67,3.51-6.36,7.91-8.08,13.18c-1.72,5.27-2.58,10.55-2.58,15.82c0,6.44,1.03,12.64,3.09,18.6c2.06,5.96,5.5,10.69,10.32,14.2
				c4.58,3.52,10.71,6.01,18.39,7.47c7.68,1.47,15.3,1.32,22.86-0.44c8.48-1.56,15.47-5.56,20.97-12.01
				c2.52-3.12,4.58-6.93,6.19-11.42c1.6-4.49,2.41-9.86,2.41-16.11c0-8.59-1.95-16.11-5.84-22.55
				C172.25-395.25,165.83-400.33,157.12-403.26 M154.37-348.18c-2.75,3.51-5.91,5.71-9.46,6.59c-3.56,0.88-7.05,0.78-10.48-0.29
				c-3.44-1.07-5.85-2.39-7.22-3.96c-3.44-3.51-5.39-9.71-5.84-18.6c-0.46-8.88,1.72-15.57,6.53-20.07c1.6-1.36,4.12-2.49,7.56-3.37
				c3.44-0.87,6.87-0.83,10.31,0.15c3.44,0.98,6.47,3.22,9.11,6.74c2.63,3.52,3.95,8.79,3.95,15.82
				C158.61-357.36,157.12-351.7,154.37-348.18"/>
			<path class="st7" d="M336.57-400.04c-6.43-3.71-16.05-5.57-28.88-5.57c-11.46,0-20.28,2.25-26.47,6.74
				c-5.5,3.91-8.71,8.89-9.63,14.94h23.04c1.14-2.15,2.97-3.61,5.5-4.39c2.52-0.78,5.39-1.17,8.59-1.17c2.98,0,6.24,0.44,9.8,1.32
				c3.55,0.88,5.33,2.78,5.33,5.71c0,3.91-5.04,6.45-15.13,7.62c-2.06,0.19-3.9,0.44-5.5,0.73c-1.61,0.29-2.98,0.43-4.13,0.43
				c-8.71,1.17-15.87,3.52-21.49,7.04c-5.62,3.51-8.42,9.38-8.42,17.58c0,8.79,3.09,15.09,9.28,18.9
				c6.19,3.81,13.41,5.71,21.66,5.71c4.13,0,8.88-0.25,14.27-0.73c5.23-0.47,10.18-1.73,14.87-3.77c0.21,0.26,0.44,0.51,0.68,0.75
				c1.85,1.84,4.06,2.76,6.64,2.76h9.96v-31.54v-3.47v-23.2C346.54-390.66,343.21-396.13,336.57-400.04 M324.18-357.84
				c0,5.47-1.84,9.77-5.5,12.9c-3.67,3.13-8.71,4.69-15.13,4.69c-3.9,0-6.88-0.78-8.94-2.35c-2.06-1.76-3.1-4.1-3.1-7.03
				c0-2.15,0.8-4.3,2.41-6.45c1.83-1.56,4.81-2.83,8.94-3.81l7.91-1.46c5.72-1.17,10.19-2.44,13.4-3.81V-357.84z"/>
			<path class="st7" d="M406.02-405.61h-1.72c-6.19,0-12.2,0.7-18.05,2.08c-5.84,1.39-10.95,3.57-15.29,6.55
				c-4.59,3.18-8.2,7.39-10.83,12.65c-2.64,5.26-3.95,11.76-3.95,19.51v39.4h17.64c3.56,0,6.45-2.89,6.45-6.45
				c0-0.14-0.01-0.27-0.02-0.41v-34.92c0-5.95,1.6-10.32,4.81-13.1c3.21-2.78,8.13-4.17,14.78-4.17h7.91v-21.14H406.02z"/>
			<path class="st7" d="M271.52-404.64h-25.96l-0.02,0.02c-2.04,0.01-3.85,0.96-5.03,2.44l-0.01,0l-27.09,31.23v-38.07
				c0-2.97-1.15-5.61-3.44-7.91c-2.29-2.29-5.04-3.44-8.25-3.44h-12.37v94.88h24.06v-22.43c0-0.25,0.03-0.5,0.08-0.73
				c0.36-2.04,2.14-3.59,4.29-3.59c0.13,0,0.26,0.03,0.39,0.04c1.35-0.01,2.81,0.88,4.4,2.72c0.92,1.06,13.77,16.18,18.59,21.86
				c0.01,0.01,0.03,0.02,0.04,0.02c1.18,1.3,2.88,2.12,4.77,2.12c0.02,0,0.03,0,0.05,0l0,0h25.84l-33-40.13L271.52-404.64z"/>
			<path class="st7" d="M106.2-404.64H80.24l-0.02,0.02c-2.04,0.01-3.85,0.96-5.03,2.44l-0.01,0L48.1-370.94v-38.07
				c0-2.97-1.15-5.61-3.44-7.91c-2.29-2.29-5.04-3.44-8.25-3.44H24.03v94.88H48.1v-22.43c0-0.25,0.03-0.5,0.08-0.73
				c0.37-2.04,2.14-3.59,4.29-3.59c0.13,0,0.26,0.03,0.39,0.04c1.35-0.01,2.81,0.88,4.4,2.72c0.92,1.06,13.77,16.18,18.6,21.86
				c0.01,0.01,0.03,0.02,0.04,0.02c1.18,1.3,2.88,2.12,4.77,2.12c0.02,0,0.03,0,0.05,0l0,0h25.84l-33-40.13L106.2-404.64z"/>
		</g>
		<g>
			<path class="st7" d="M133.98-288.44l-0.6-4.81h-5.5l-2.39,4.81h-3.34l8.18-17.11h4.81l2.17,17.11H133.98z M132.62-300.59
				c-0.12-0.87-0.14-1.77-0.12-2.72h-0.21c-0.35,0.94-0.69,1.84-1.11,2.72l-2.26,4.72h4.26L132.62-300.59z"/>
			<path class="st7" d="M148.7-299.12c-1.57-0.18-2.95-0.28-3.96-0.28c-1.13,0-2.49,0.09-2.49,1.43c0,0.67,0.41,0.88,1.66,1.43
				l0.99,0.44c2.26,1.01,3.2,1.82,3.2,3.68c0,3.06-2.42,4.3-6.01,4.3c-1.8,0-3.78-0.32-4.3-0.51l0.35-2.07
				c1.15,0.14,2.37,0.25,4.21,0.25c1.5,0,2.69-0.25,2.69-1.59c0-0.76-0.39-1.01-1.96-1.71l-0.9-0.39c-1.98-0.87-2.97-1.87-2.97-3.66
				c0-3.27,2.72-3.94,5.48-3.94c1.91,0,3.45,0.25,4.35,0.51L148.7-299.12z"/>
			<path class="st7" d="M173.48-305.59c-1.39-0.11-3.4-0.25-5.13-0.25c-3.15,0-4.79,1.05-5.64,5.67l-0.45,2.41
				c-0.17,0.94-0.26,1.73-0.26,2.35c0,2.64,1.36,3.32,3.88,3.32c1.73,0,3.77-0.11,5.19-0.23l-0.62,3.8
				c-1.08,0.25-4.05,0.57-5.81,0.57c-5.05,0-8-1.87-8-7c0-0.99,0.08-2.07,0.31-3.29l0.45-2.41c1.42-7.57,5.1-9.3,11.11-9.3
				c1.76,0,4.62,0.31,5.62,0.59L173.48-305.59z"/>
			<path class="st7" d="M187.85-297l-0.31,1.79c-0.93,5.33-4.05,7.2-8.79,7.2c-4.45,0-6.78-1.93-6.78-5.78c0-0.76,0-1.53,0.2-2.49
				l0.31-1.56c1.05-5.33,4.09-7.17,8.76-7.17c4.37,0,6.84,1.76,6.84,5.78C188.08-298.53,187.97-297.59,187.85-297 M180.82-301.25
				c-2.16,0-2.98,0.99-3.52,3.86l-0.34,1.76c-0.14,0.71-0.17,1.28-0.17,1.84c0,1.45,0.65,2.01,2.33,2.01c2.21,0,2.97-0.99,3.54-3.85
				l0.34-1.76c0.14-0.79,0.17-1.3,0.17-1.79C183.17-300.54,182.63-301.25,180.82-301.25"/>
			<path class="st7" d="M200.39-300.88c-1.79,0-3.8,0.31-5.13,0.74l-2.07,11.71h-4.96l2.86-16.16h4.57l-0.23,1.33
				c1.84-1.47,3.91-1.76,5.67-1.76L200.39-300.88z"/>
			<path class="st7" d="M214.79-295.18h-10.6c-0.11,0.71-0.2,1.16-0.2,1.53c0,1.3,0.71,1.96,3.32,1.96c1.67,0,3.09-0.08,6.12-0.28
				l-0.54,3.26c-1.33,0.31-3.66,0.71-6.55,0.71c-4.65,0-7.12-1.73-7.12-5.81c0-0.82,0.11-1.73,0.28-2.72l0.14-0.85
				c0.93-5.67,4.28-7.63,8.99-7.63c4.73,0,6.64,2.41,6.64,5.93C215.27-297.96,215.13-296.86,214.79-295.18 M208.19-301.51
				c-2.41,0-3.15,1.64-3.46,3.4l-0.06,0.23h5.78c0.11-0.59,0.17-1.11,0.17-1.47C210.62-300.57,210.09-301.51,208.19-301.51"/>
			<path class="st7" d="M229.28-301.39c-2.01-0.2-3.94-0.31-5.16-0.31c-1.19,0-2.61,0.06-2.61,1.42c0,0.68,0.51,0.96,1.85,1.5
				l1.36,0.54c2.81,1.11,3.94,2.35,3.94,4.62c0,4.2-3.49,5.59-8.08,5.59c-2.27,0-4.82-0.37-5.67-0.62l0.51-2.98
				c2.1,0.11,3.06,0.31,5.44,0.31c1.56,0,2.87-0.26,2.87-1.65c0-0.79-0.4-1.05-2.13-1.76l-1.19-0.48c-2.47-0.99-3.8-2.38-3.8-4.73
				c0-4.28,3.66-5.08,7.4-5.08c2.44,0,4.54,0.31,5.79,0.65L229.28-301.39z"/>
			<path class="st7" d="M255.06-288.44h-5.13l1.93-10.44c0.23-1.25,0.42-2.21,0.74-3.43h-0.06c-0.63,0.91-1.25,1.87-1.87,2.69
				l-3.63,4.9h-3.06l-1.73-4.9c-0.28-0.82-0.62-1.79-0.88-2.69h-0.06c-0.17,1.22-0.28,2.18-0.51,3.43l-1.9,10.44h-5.13l3.74-21.07
				h5.1l2.7,7.49c0.28,0.79,0.59,1.67,0.85,2.55h0.06c0.59-0.88,1.19-1.79,1.79-2.58l5.5-7.46h5.27L255.06-288.44z"/>
			<path class="st7" d="M272.84-288.44h-4.65l0.2-1.3c-1.73,0.99-3.66,1.73-5.73,1.73c-3.38,0-4.23-1.9-4.23-4.17
				c0-0.85,0.11-1.73,0.26-2.58l1.73-9.84h4.93l-1.79,10.24c-0.11,0.57-0.14,0.99-0.14,1.36c0,0.94,0.42,1.25,1.48,1.25
				c1.02,0,2.32-0.34,3.71-0.88l2.13-11.97h4.93L272.84-288.44z"/>
			<path class="st7" d="M289.97-288.44h-4.57l0.14-0.82c-1.25,0.68-2.89,1.25-4.71,1.25c-3.29,0-5.08-1.96-5.08-5.5
				c0-0.74,0.06-1.53,0.23-2.41l0.37-1.98c1.05-5.64,4-7.12,8.59-7.12c1.13,0,2.04,0.08,2.92,0.25l1.05-5.76h4.93L289.97-288.44z
				 M284.92-301.28c-2.04,0-3.12,0.57-3.72,3.86l-0.37,1.99c-0.11,0.65-0.17,1.22-0.17,1.64c0,1.45,0.68,2.04,2.27,2.04
				c0.96,0,1.93-0.26,2.81-0.57l1.56-8.73C286.48-301.2,285.54-301.28,284.92-301.28"/>
			<path class="st7" d="M302.53-288.43l0.14-0.82c-1.28,0.74-2.84,1.22-4.79,1.22c-3.2,0-4.99-1.9-4.99-5.48
				c0-0.71,0.06-1.53,0.23-2.38l0.37-1.99c1.08-5.79,3.74-7.14,9.56-7.14c1.87,0,4.51,0.14,6.89,0.42l-2.81,16.16H302.53z
				 M304.46-301.19c-0.8-0.06-1.87-0.08-2.33-0.08c-2.1,0-3.2,0.57-3.8,3.86l-0.37,1.99c-0.09,0.68-0.17,1.22-0.17,1.64
				c0,1.42,0.71,2.04,2.3,2.04c0.96,0,1.93-0.25,2.78-0.57L304.46-301.19z"/>
			<path class="st7" d="M334.92-298.7l-1.84,10.27h-4.9l1.81-10.52c0.09-0.51,0.17-0.94,0.17-1.3c0-0.71-0.28-1.08-1.42-1.08
				c-0.77,0-1.9,0.31-2.86,0.79c0,0.51-0.11,1.08-0.2,1.59l-1.84,10.52h-4.96l1.84-10.52c0.08-0.54,0.17-0.97,0.17-1.33
				c0-0.71-0.28-1.05-1.3-1.05c-0.94,0-2.07,0.42-2.92,0.82l-2.13,12.08h-4.96l2.86-16.16h4.62l-0.23,1.28
				c1.56-1.08,3.4-1.7,5.19-1.7c1.98,0,3,0.65,3.54,1.76c2.01-1.25,3.74-1.76,5.24-1.76c3.4,0,4.37,1.7,4.37,3.97
				C335.17-300.29,335.06-299.47,334.92-298.7"/>
			<path class="st7" d="M350.91-288.44h-4.7l-2.14-17.11h3.23l1.38,11.88c0.11,0.99,0.14,2.14,0.21,3.06
				c0.37-0.92,0.74-2.07,1.22-3.06l5.66-11.88h3.34L350.91-288.44z"/>
			<path class="st7" d="M368.18-295.39l-0.3,1.61c-0.76,4.08-3.02,5.69-6.68,5.69c-3.38,0-5.07-1.61-5.07-4.51
				c0-0.64,0.07-1.29,0.16-1.86l0.28-1.61c0.71-4.1,3.08-5.64,6.68-5.64c3.29,0,5.11,1.43,5.11,4.51
				C368.37-296.61,368.23-295.8,368.18-295.39 M362.98-299.14c-2.12,0-2.97,0.95-3.43,3.43l-0.3,1.61
				c-0.09,0.53-0.14,0.99-0.14,1.49c0,1.36,0.65,1.93,2.33,1.93c2.21,0,2.99-0.94,3.45-3.43l0.3-1.61c0.12-0.64,0.14-1.04,0.14-1.45
				C365.33-298.43,364.82-299.14,362.98-299.14"/>
			<path class="st7" d="M379.49-298.96c-1.61-0.14-2.72-0.21-3.46-0.21c-1.89,0-3.06,0.62-3.57,3.43l-0.3,1.64
				c-0.09,0.53-0.14,0.97-0.14,1.36c0,1.68,0.81,2.09,2.46,2.09c0.71,0,1.84-0.07,3.5-0.21l-0.37,2.28
				c-0.62,0.16-2.1,0.48-3.92,0.48c-3.36,0-4.68-1.79-4.68-4.51c0-0.58,0.05-1.2,0.16-1.87l0.3-1.63c0.71-3.96,2.69-5.62,6.45-5.62
				c1.96,0,3.34,0.32,3.92,0.48L379.49-298.96z"/>
			<path class="st7" d="M390.94-293.96h-8.66c-0.12,0.67-0.18,1.08-0.18,1.43c0,1.22,0.62,1.93,2.99,1.93c1.38,0,2.99-0.14,4.74-0.3
				l-0.37,2.26c-1.01,0.23-2.77,0.55-4.95,0.55c-3.66,0-5.37-1.47-5.37-4.56c0-0.67,0.07-1.43,0.23-2.23l0.16-0.81
				c0.88-4.33,3.25-6.03,6.75-6.03c3.39,0,5.04,1.7,5.04,4.63C391.33-296.15,391.19-295.23,390.94-293.96 M388.98-302.83l-1.8-2.09
				l-2.6,2.09h-2.88l3.71-3.43h3.78l2.49,3.43H388.98z M386.06-299.28c-2.4,0-3.11,1.66-3.39,3.13l-0.02,0.21h5.62
				c0.09-0.51,0.14-0.95,0.14-1.29C388.41-298.34,387.95-299.28,386.06-299.28"/>
			<polygon class="st7" points="391.63,-288.44 392.23,-291.98 395.29,-291.98 394.7,-288.44 			"/>
		</g>
	</g>
</g>
</svg>
