<?xml version="1.0" encoding="utf-8"?>
<!-- Generator: Adobe Illustrator 27.0.0, SVG Export Plug-In . SVG Version: 6.00 Build 0)  -->
<svg version="1.1" id="Layer_1" xmlns="http://www.w3.org/2000/svg" xmlns:xlink="http://www.w3.org/1999/xlink" x="0px" y="0px"
	 viewBox="0 0 524.2 469.83" style="enable-background:new 0 0 524.2 469.83;" xml:space="preserve">
<style type="text/css">
	.st0{fill:#BA2227;}
	.st1{fill:#FFCB08;}
	.st2{fill:#E77A23;}
	.st3{fill:#522A79;}
	.st4{fill:#0F6C39;}
	.st5{fill:#2B98D4;}
	.st6{fill:#FFFFFF;}
</style>
<g>
	<g>
		<path class="st0" d="M227.31,154.23c-32.74,11.51-65.41,30.71-88.46,40.98c-3.12,1.39-2.9,4.4,0.38,4.97
			c54.25,9.32,164.03,49.08,188.99-25.54C296.53,202.67,259.1,180.77,227.31,154.23"/>
		<path class="st1" d="M267.43,119.28c-27.97-5.61-59.52-5.42-80.67-7.49c-3.27-0.32-4.43,2.37-1.92,4.49
			c11.72,9.9,26.38,24.52,42.48,37.95c17.48-6.14,34.98-10.05,51.05-9.26C274.1,136.96,270.54,128.1,267.43,119.28"/>
		<path class="st2" d="M328.32,173.98c-0.14,0.27-0.24,0.54-0.38,0.81c-23.71,5.01-38.87-9.71-49.57-29.81
			c-16.07-0.8-33.57,3.11-51.05,9.26c31.78,26.54,69.21,48.44,100.91,20.4c0.06-0.17,0.13-0.32,0.2-0.5
			C328.39,174.07,328.35,174.03,328.32,173.98"/>
		<path class="st3" d="M278.37,144.97c10.7,20.11,25.87,34.82,49.57,29.82c0.14-0.27,0.24-0.54,0.38-0.81
			C315.64,154.02,298.09,145.94,278.37,144.97"/>
		<path class="st4" d="M267.43,119.28c3.12,8.83,6.68,17.68,10.94,25.69c19.72,0.97,37.27,9.05,49.95,29.01
			c0.07-0.14,0.13-0.27,0.19-0.41C326.74,139.77,299.44,125.71,267.43,119.28"/>
		<path class="st5" d="M255.85,83.62c3.43,9.89,7.02,22.72,11.57,35.65c32.01,6.43,59.31,20.5,61.08,54.3
			c20.53-41.92-39.88-72.85-68.72-93C257.09,78.69,254.77,80.49,255.85,83.62"/>
	</g>
	<g>
		<g>
			<path class="st6" d="M456.3,251.33c0.65,0,1.28,0.17,1.9,0.5c0.62,0.33,1.1,0.81,1.45,1.43c0.34,0.62,0.52,1.27,0.52,1.94
				c0,0.67-0.17,1.31-0.51,1.92c-0.34,0.62-0.82,1.09-1.43,1.43c-0.61,0.34-1.26,0.51-1.92,0.51c-0.67,0-1.31-0.17-1.92-0.51
				c-0.62-0.34-1.09-0.82-1.44-1.43c-0.34-0.62-0.51-1.26-0.51-1.92c0-0.67,0.17-1.32,0.52-1.94c0.35-0.62,0.83-1.1,1.45-1.43
				C455.01,251.5,455.65,251.33,456.3,251.33 M456.3,251.97c-0.54,0-1.07,0.14-1.59,0.42c-0.51,0.28-0.91,0.68-1.21,1.2
				c-0.29,0.52-0.43,1.06-0.43,1.62c0,0.56,0.14,1.09,0.43,1.6c0.28,0.51,0.69,0.91,1.2,1.2c0.51,0.29,1.05,0.43,1.61,0.43
				c0.56,0,1.09-0.14,1.6-0.43c0.51-0.28,0.91-0.68,1.2-1.2c0.28-0.51,0.43-1.04,0.43-1.6c0-0.56-0.14-1.1-0.43-1.62
				c-0.29-0.52-0.69-0.92-1.21-1.2C457.36,252.11,456.84,251.97,456.3,251.97 M454.82,257.34v-4.17h1.43c0.49,0,0.84,0.04,1.06,0.12
				c0.22,0.08,0.39,0.21,0.52,0.4c0.13,0.19,0.19,0.39,0.19,0.61c0,0.31-0.11,0.57-0.33,0.8c-0.22,0.23-0.51,0.35-0.86,0.38
				c0.15,0.06,0.26,0.14,0.35,0.22c0.17,0.17,0.37,0.44,0.62,0.83l0.51,0.82h-0.82l-0.37-0.66c-0.29-0.52-0.52-0.84-0.7-0.97
				c-0.12-0.1-0.3-0.14-0.54-0.14h-0.39v1.77H454.82z M455.27,255h0.81c0.39,0,0.66-0.06,0.8-0.17c0.14-0.12,0.21-0.27,0.21-0.46
				c0-0.12-0.03-0.23-0.1-0.33c-0.07-0.1-0.16-0.17-0.28-0.22c-0.12-0.05-0.35-0.07-0.67-0.07h-0.76V255z"/>
			<path class="st6" d="M197.12,257.08c-7.57-2.34-16.04-2.97-25.44-1.9c-9.4,1.08-17.08,4.54-23.03,10.4
				c-3.67,3.51-6.36,7.91-8.08,13.18c-1.72,5.27-2.58,10.55-2.58,15.82c0,6.44,1.03,12.64,3.09,18.6c2.06,5.96,5.5,10.69,10.32,14.2
				c4.58,3.52,10.71,6.01,18.39,7.47c7.68,1.47,15.3,1.32,22.86-0.44c8.48-1.56,15.47-5.56,20.97-12.01
				c2.52-3.12,4.58-6.93,6.19-11.42c1.6-4.49,2.41-9.86,2.41-16.11c0-8.59-1.95-16.11-5.84-22.55
				C212.25,265.09,205.83,260.01,197.12,257.08 M194.37,312.15c-2.75,3.51-5.91,5.71-9.46,6.59c-3.56,0.88-7.05,0.78-10.48-0.29
				c-3.44-1.07-5.85-2.39-7.22-3.96c-3.44-3.51-5.39-9.71-5.84-18.6c-0.46-8.88,1.72-15.57,6.53-20.07c1.6-1.36,4.12-2.49,7.56-3.37
				c3.44-0.87,6.87-0.83,10.31,0.15c3.44,0.98,6.47,3.22,9.11,6.74c2.63,3.52,3.95,8.79,3.95,15.82
				C198.61,302.97,197.12,308.63,194.37,312.15"/>
			<path class="st6" d="M376.57,260.29c-6.43-3.71-16.05-5.57-28.88-5.57c-11.46,0-20.28,2.25-26.47,6.74
				c-5.5,3.91-8.71,8.89-9.63,14.94h23.04c1.14-2.15,2.97-3.61,5.5-4.39c2.52-0.78,5.39-1.17,8.59-1.17c2.98,0,6.24,0.44,9.8,1.32
				c3.55,0.88,5.33,2.78,5.33,5.71c0,3.91-5.04,6.45-15.13,7.62c-2.06,0.19-3.9,0.44-5.5,0.73c-1.61,0.29-2.98,0.43-4.13,0.43
				c-8.71,1.17-15.87,3.52-21.49,7.04c-5.62,3.51-8.42,9.38-8.42,17.58c0,8.79,3.09,15.09,9.28,18.9
				c6.19,3.81,13.41,5.71,21.66,5.71c4.13,0,8.88-0.25,14.27-0.73c5.23-0.47,10.18-1.73,14.87-3.77c0.21,0.26,0.44,0.51,0.68,0.75
				c1.85,1.84,4.06,2.76,6.64,2.76h9.96v-31.54v-3.47v-23.2C386.54,269.67,383.21,264.2,376.57,260.29 M364.18,302.49
				c0,5.47-1.84,9.77-5.5,12.9c-3.67,3.13-8.71,4.69-15.13,4.69c-3.9,0-6.88-0.78-8.94-2.35c-2.06-1.76-3.1-4.1-3.1-7.03
				c0-2.15,0.8-4.3,2.41-6.45c1.83-1.56,4.81-2.83,8.94-3.81l7.91-1.46c5.72-1.17,10.19-2.44,13.4-3.81V302.49z"/>
			<path class="st6" d="M446.02,254.72h-1.72c-6.19,0-12.2,0.7-18.05,2.08c-5.84,1.39-10.95,3.57-15.29,6.55
				c-4.59,3.18-8.2,7.39-10.83,12.65c-2.64,5.26-3.95,11.76-3.95,19.51v39.4h17.64c3.56,0,6.45-2.89,6.45-6.45
				c0-0.14-0.01-0.27-0.02-0.41v-34.92c0-5.95,1.6-10.32,4.81-13.1c3.21-2.78,8.13-4.17,14.78-4.17h7.91v-21.14H446.02z"/>
			<path class="st6" d="M311.52,255.7h-25.96l-0.02,0.02c-2.04,0.01-3.85,0.96-5.03,2.44l-0.01,0l-27.09,31.23v-38.07
				c0-2.97-1.15-5.61-3.44-7.91c-2.29-2.29-5.04-3.44-8.25-3.44h-12.37v94.88h24.06v-22.43c0-0.25,0.03-0.5,0.08-0.73
				c0.36-2.04,2.14-3.59,4.29-3.59c0.13,0,0.26,0.03,0.39,0.04c1.35-0.01,2.81,0.88,4.4,2.72c0.92,1.06,13.77,16.18,18.59,21.86
				c0.01,0.01,0.03,0.02,0.04,0.02c1.18,1.3,2.88,2.12,4.77,2.12c0.02,0,0.03,0,0.05,0l0,0h25.84l-33-40.13L311.52,255.7z"/>
			<path class="st6" d="M146.2,255.7h-25.96l-0.02,0.02c-2.04,0.01-3.85,0.96-5.03,2.44l-0.01,0L88.1,289.39v-38.07
				c0-2.97-1.15-5.61-3.44-7.91c-2.29-2.29-5.04-3.44-8.25-3.44H64.03v94.88H88.1v-22.43c0-0.25,0.03-0.5,0.08-0.73
				c0.37-2.04,2.14-3.59,4.29-3.59c0.13,0,0.26,0.03,0.39,0.04c1.35-0.01,2.81,0.88,4.4,2.72c0.92,1.06,13.77,16.18,18.6,21.86
				c0.01,0.01,0.03,0.02,0.04,0.02c1.18,1.3,2.88,2.12,4.77,2.12c0.02,0,0.03,0,0.05,0l0,0h25.84l-33-40.13L146.2,255.7z"/>
		</g>
		<g>
			<path class="st6" d="M173.98,371.9l-0.6-4.81h-5.5l-2.39,4.81h-3.34l8.18-17.11h4.81l2.17,17.11H173.98z M172.62,359.74
				c-0.12-0.87-0.14-1.77-0.12-2.72h-0.21c-0.35,0.94-0.69,1.84-1.11,2.72l-2.26,4.72h4.26L172.62,359.74z"/>
			<path class="st6" d="M188.7,361.21c-1.57-0.18-2.95-0.28-3.96-0.28c-1.13,0-2.49,0.09-2.49,1.43c0,0.67,0.41,0.88,1.66,1.43
				l0.99,0.44c2.26,1.01,3.2,1.82,3.2,3.68c0,3.06-2.42,4.3-6.01,4.3c-1.8,0-3.78-0.32-4.3-0.51l0.35-2.07
				c1.15,0.14,2.37,0.25,4.21,0.25c1.5,0,2.69-0.25,2.69-1.59c0-0.76-0.39-1.01-1.96-1.71l-0.9-0.39c-1.98-0.87-2.97-1.87-2.97-3.66
				c0-3.27,2.72-3.94,5.48-3.94c1.91,0,3.45,0.25,4.35,0.51L188.7,361.21z"/>
			<path class="st6" d="M213.48,354.74c-1.39-0.11-3.4-0.25-5.13-0.25c-3.15,0-4.79,1.05-5.64,5.67l-0.45,2.41
				c-0.17,0.94-0.26,1.73-0.26,2.35c0,2.64,1.36,3.32,3.88,3.32c1.73,0,3.77-0.11,5.19-0.23l-0.62,3.8
				c-1.08,0.25-4.05,0.57-5.81,0.57c-5.05,0-8-1.87-8-7c0-0.99,0.08-2.07,0.31-3.29l0.45-2.41c1.42-7.57,5.1-9.3,11.11-9.3
				c1.76,0,4.62,0.31,5.62,0.59L213.48,354.74z"/>
			<path class="st6" d="M227.85,363.34l-0.31,1.79c-0.93,5.33-4.05,7.2-8.79,7.2c-4.45,0-6.78-1.93-6.78-5.78
				c0-0.76,0-1.53,0.2-2.49l0.31-1.56c1.05-5.33,4.09-7.17,8.76-7.17c4.37,0,6.84,1.76,6.84,5.79
				C228.08,361.8,227.97,362.74,227.85,363.34 M220.82,359.08c-2.16,0-2.98,0.99-3.52,3.86l-0.34,1.76
				c-0.14,0.71-0.17,1.28-0.17,1.84c0,1.45,0.65,2.01,2.33,2.01c2.21,0,2.97-0.99,3.54-3.85l0.34-1.76c0.14-0.79,0.17-1.3,0.17-1.79
				C223.17,359.79,222.63,359.08,220.82,359.08"/>
			<path class="st6" d="M240.39,359.45c-1.79,0-3.8,0.31-5.13,0.74l-2.07,11.71h-4.96l2.86-16.16h4.57l-0.23,1.33
				c1.84-1.47,3.91-1.76,5.67-1.76L240.39,359.45z"/>
			<path class="st6" d="M254.79,365.15h-10.6c-0.11,0.71-0.2,1.16-0.2,1.53c0,1.3,0.71,1.96,3.32,1.96c1.67,0,3.09-0.08,6.12-0.28
				l-0.54,3.26c-1.33,0.31-3.66,0.71-6.55,0.71c-4.65,0-7.12-1.73-7.12-5.81c0-0.82,0.11-1.73,0.28-2.72l0.14-0.85
				c0.93-5.67,4.28-7.63,8.99-7.63c4.73,0,6.64,2.41,6.64,5.93C255.27,362.37,255.13,363.48,254.79,365.15 M248.19,358.83
				c-2.41,0-3.15,1.64-3.46,3.4l-0.06,0.23h5.78c0.11-0.59,0.17-1.11,0.17-1.47C250.62,359.76,250.09,358.83,248.19,358.83"/>
			<path class="st6" d="M269.28,358.94c-2.01-0.2-3.94-0.31-5.16-0.31c-1.19,0-2.61,0.06-2.61,1.42c0,0.68,0.51,0.96,1.85,1.5
				l1.36,0.54c2.81,1.11,3.94,2.35,3.94,4.62c0,4.2-3.49,5.59-8.08,5.59c-2.27,0-4.82-0.37-5.67-0.62l0.51-2.98
				c2.1,0.11,3.06,0.31,5.44,0.31c1.56,0,2.87-0.26,2.87-1.65c0-0.79-0.4-1.05-2.13-1.76l-1.19-0.48c-2.47-0.99-3.8-2.38-3.8-4.73
				c0-4.28,3.66-5.08,7.4-5.08c2.44,0,4.54,0.31,5.79,0.65L269.28,358.94z"/>
			<path class="st6" d="M295.06,371.9h-5.13l1.93-10.44c0.23-1.25,0.42-2.21,0.74-3.43h-0.06c-0.63,0.91-1.25,1.87-1.87,2.69
				l-3.63,4.9h-3.06l-1.73-4.9c-0.28-0.82-0.62-1.79-0.88-2.69h-0.06c-0.17,1.22-0.28,2.18-0.51,3.43l-1.9,10.44h-5.13l3.74-21.07
				h5.1l2.7,7.49c0.28,0.79,0.59,1.67,0.85,2.55h0.06c0.59-0.88,1.19-1.79,1.79-2.58l5.5-7.46h5.27L295.06,371.9z"/>
			<path class="st6" d="M312.84,371.9h-4.65l0.2-1.3c-1.73,0.99-3.66,1.73-5.73,1.73c-3.38,0-4.23-1.9-4.23-4.17
				c0-0.85,0.11-1.73,0.26-2.58l1.73-9.84h4.93l-1.79,10.24c-0.11,0.57-0.14,0.99-0.14,1.36c0,0.94,0.42,1.25,1.48,1.25
				c1.02,0,2.32-0.34,3.71-0.88l2.13-11.97h4.93L312.84,371.9z"/>
			<path class="st6" d="M329.97,371.9h-4.57l0.14-0.82c-1.25,0.68-2.89,1.25-4.71,1.25c-3.29,0-5.08-1.96-5.08-5.5
				c0-0.74,0.06-1.53,0.23-2.41l0.37-1.98c1.05-5.64,4-7.12,8.59-7.12c1.13,0,2.04,0.08,2.92,0.25l1.05-5.76h4.93L329.97,371.9z
				 M324.92,359.05c-2.04,0-3.12,0.57-3.72,3.86l-0.37,1.99c-0.11,0.65-0.17,1.22-0.17,1.64c0,1.45,0.68,2.04,2.27,2.04
				c0.96,0,1.93-0.26,2.81-0.57l1.56-8.73C326.48,359.14,325.54,359.05,324.92,359.05"/>
			<path class="st6" d="M342.53,371.9l0.14-0.82c-1.28,0.74-2.84,1.22-4.79,1.22c-3.2,0-4.99-1.9-4.99-5.48
				c0-0.71,0.06-1.53,0.23-2.38l0.37-1.99c1.08-5.79,3.74-7.14,9.56-7.14c1.87,0,4.51,0.14,6.89,0.42l-2.81,16.16H342.53z
				 M344.46,359.14c-0.8-0.06-1.87-0.08-2.33-0.08c-2.1,0-3.2,0.57-3.8,3.86l-0.37,1.99c-0.09,0.68-0.17,1.22-0.17,1.64
				c0,1.42,0.71,2.04,2.3,2.04c0.96,0,1.93-0.25,2.78-0.57L344.46,359.14z"/>
			<path class="st6" d="M374.92,361.63l-1.84,10.27h-4.9l1.81-10.52c0.09-0.51,0.17-0.94,0.17-1.3c0-0.71-0.28-1.08-1.42-1.08
				c-0.77,0-1.9,0.31-2.86,0.79c0,0.51-0.11,1.08-0.2,1.59l-1.84,10.52h-4.96l1.84-10.52c0.08-0.54,0.17-0.97,0.17-1.33
				c0-0.71-0.28-1.05-1.3-1.05c-0.94,0-2.07,0.42-2.92,0.82l-2.13,12.08h-4.96l2.86-16.16h4.62l-0.23,1.28
				c1.56-1.08,3.4-1.7,5.19-1.7c1.98,0,3,0.65,3.54,1.76c2.01-1.25,3.74-1.76,5.24-1.76c3.4,0,4.37,1.7,4.37,3.97
				C375.17,360.05,375.06,360.87,374.92,361.63"/>
			<path class="st6" d="M390.91,371.9h-4.7l-2.14-17.11h3.23l1.38,11.88c0.11,0.99,0.14,2.14,0.21,3.06
				c0.37-0.92,0.74-2.07,1.22-3.06l5.66-11.88h3.34L390.91,371.9z"/>
			<path class="st6" d="M408.18,364.94l-0.3,1.61c-0.76,4.08-3.02,5.69-6.68,5.69c-3.38,0-5.07-1.61-5.07-4.51
				c0-0.64,0.07-1.29,0.16-1.86l0.28-1.61c0.71-4.1,3.08-5.64,6.68-5.64c3.29,0,5.11,1.43,5.11,4.51
				C408.37,363.72,408.23,364.53,408.18,364.94 M402.98,361.19c-2.12,0-2.97,0.95-3.43,3.43l-0.3,1.61
				c-0.09,0.53-0.14,0.99-0.14,1.49c0,1.36,0.65,1.93,2.33,1.93c2.21,0,2.99-0.94,3.45-3.43l0.3-1.61c0.12-0.64,0.14-1.04,0.14-1.45
				C405.33,361.9,404.82,361.19,402.98,361.19"/>
			<path class="st6" d="M419.49,361.38c-1.61-0.14-2.72-0.21-3.46-0.21c-1.89,0-3.06,0.62-3.57,3.43l-0.3,1.64
				c-0.09,0.53-0.14,0.97-0.14,1.36c0,1.68,0.81,2.09,2.46,2.09c0.71,0,1.84-0.07,3.5-0.21l-0.37,2.28
				c-0.62,0.16-2.1,0.48-3.92,0.48c-3.36,0-4.68-1.79-4.68-4.51c0-0.58,0.05-1.2,0.16-1.87l0.3-1.63c0.71-3.96,2.69-5.62,6.45-5.62
				c1.96,0,3.34,0.32,3.92,0.48L419.49,361.38z"/>
			<path class="st6" d="M430.94,366.37h-8.66c-0.12,0.67-0.18,1.08-0.18,1.43c0,1.22,0.62,1.93,2.99,1.93c1.38,0,2.99-0.14,4.74-0.3
				l-0.37,2.26c-1.01,0.23-2.77,0.55-4.95,0.55c-3.66,0-5.37-1.47-5.37-4.56c0-0.67,0.07-1.43,0.23-2.23l0.16-0.81
				c0.88-4.33,3.25-6.03,6.75-6.03c3.39,0,5.04,1.7,5.04,4.63C431.33,364.18,431.19,365.1,430.94,366.37 M428.98,357.51l-1.8-2.09
				l-2.6,2.09h-2.88l3.71-3.43h3.78l2.49,3.43H428.98z M426.06,361.05c-2.4,0-3.11,1.66-3.39,3.13l-0.02,0.21h5.62
				c0.09-0.51,0.14-0.95,0.14-1.29C428.41,362,427.95,361.05,426.06,361.05"/>
			<polygon class="st6" points="431.63,371.9 432.23,368.35 435.29,368.35 434.7,371.9 			"/>
		</g>
	</g>
</g>
</svg>
